<svg xmlns="http://www.w3.org/2000/svg" xmlns:xlink="http://www.w3.org/1999/xlink" fill="none" version="1.1" width="14" height="14" viewBox="0 0 14 14"><defs><clipPath id="master_svg0_7304_106164"><rect x="0" y="0" width="14" height="14" rx="0"/></clipPath></defs><g clip-path="url(#master_svg0_7304_106164)"><g><path d="M1,2L1,12Q1,12.0985,1.0192147,12.1951Q1.0384294,12.2917,1.0761205,12.3827Q1.113811,12.4737,1.16853,12.5556Q1.223249,12.6375,1.292893,12.7071Q1.362537,12.7767,1.44443,12.8315Q1.526322,12.8862,1.617316,12.9239Q1.7083110000000001,12.9616,1.80491,12.9808Q1.901509,13,2,13L12,13Q12.0985,13,12.1951,12.9808Q12.2917,12.9616,12.3827,12.9239Q12.4737,12.8862,12.5556,12.8315Q12.6375,12.7767,12.7071,12.7071Q12.7767,12.6375,12.8315,12.5556Q12.8862,12.4737,12.9239,12.3827Q12.9616,12.2917,12.9808,12.1951Q13,12.0985,13,12L13,2Q13,1.901509,12.9808,1.80491Q12.9616,1.7083110000000001,12.9239,1.617316Q12.8862,1.526322,12.8315,1.44443Q12.7767,1.362537,12.7071,1.292893Q12.6375,1.223249,12.5556,1.16853Q12.4737,1.113811,12.3827,1.0761205Q12.2917,1.0384294,12.1951,1.0192147Q12.0985,1,12,1L2,1Q1.901509,1,1.80491,1.0192147Q1.7083110000000001,1.0384294,1.617316,1.0761205Q1.526322,1.113811,1.44443,1.16853Q1.362537,1.223249,1.292893,1.292893Q1.223249,1.362537,1.16853,1.44443Q1.113811,1.526322,1.0761205,1.617316Q1.0384294,1.7083110000000001,1.0192147,1.80491Q1,1.901509,1,2ZM2.17,11.83L11.83,11.83L11.83,2.17L2.17,2.17L2.17,11.83Z" fill-rule="evenodd" fill="#5C6270" fill-opacity="1"/></g><g><path d="M1,7L1,12Q1,12.09849,1.0192147,12.19509Q1.0384294,12.29169,1.0761205,12.38268Q1.113811,12.47368,1.16853,12.55557Q1.223249,12.63746,1.292893,12.70711Q1.362537,12.77675,1.44443,12.83147Q1.526322,12.88619,1.617316,12.92388Q1.7083110000000001,12.96157,1.80491,12.98078Q1.901509,13,2,13L7,13Q7.09849,13,7.19509,12.98078Q7.29169,12.96157,7.38268,12.92388Q7.47368,12.88619,7.55557,12.83147Q7.63746,12.77675,7.70711,12.70711Q7.77675,12.63746,7.83147,12.55557Q7.88619,12.47368,7.92388,12.38268Q7.96157,12.29169,7.98078,12.19509Q8,12.09849,8,12L8,7Q8,6.901509,7.98078,6.80491Q7.96157,6.708311,7.92388,6.617316Q7.88619,6.526322,7.83147,6.44443Q7.77675,6.362537,7.70711,6.292893Q7.63746,6.223249,7.55557,6.16853Q7.47368,6.113811,7.38268,6.0761205Q7.29169,6.0384294,7.19509,6.0192147Q7.09849,6,7,6L2,6Q1.901509,6,1.80491,6.0192147Q1.7083110000000001,6.0384294,1.617316,6.0761205Q1.526322,6.113811,1.44443,6.16853Q1.362537,6.223249,1.292893,6.292893Q1.223249,6.362537,1.16853,6.44443Q1.113811,6.526322,1.0761205,6.617316Q1.0384294,6.708311,1.0192147,6.80491Q1,6.901509,1,7ZM2.17,11.83L6.83,11.83L6.83,7.17L2.17,7.17L2.17,11.83Z" fill-rule="evenodd" fill="#5C6270" fill-opacity="1"/></g></g></svg>