<svg xmlns="http://www.w3.org/2000/svg" xmlns:xlink="http://www.w3.org/1999/xlink" fill="none" version="1.1" width="22" height="22" viewBox="0 0 22 22"><defs><clipPath id="master_svg0_3508_118334"><rect x="4" y="4" width="14" height="14" rx="0"/></clipPath></defs><g><g clip-path="url(#master_svg0_3508_118334)"><g><path d="M9.696404829864502,7.607534L10.331064829864502,7.607534L10.331064829864502,6.625L9.696404829864502,6.625Q8.440334829864502,6.625,7.552161829864502,7.513174Q6.663987137764502,8.40135,6.663987137764502,9.65742L6.663987444564502,14.63625C6.663987469664502,15.04425,6.994735829864502,15.375,7.402734829864502,15.375L7.646521829864502,15.375L7.646521829864502,15.37277L10.330734829864502,15.37277C10.738734829864502,15.37277,11.069484829864502,15.04202,11.069484829864502,14.63402L11.069484829864502,12.29979C11.069484829864502,11.89179,10.738734829864502,11.56105,10.330734829864502,11.56105L7.646521829864502,11.56105L7.646521829864502,9.65742Q7.646521829864502,8.80833,8.246914829864501,8.20793Q8.847314829864501,7.607534,9.696404829864502,7.607534ZM15.310664829864502,7.607534L15.945324829864502,7.607534L15.945324829864502,6.625L15.310664829864502,6.625Q14.054594829864502,6.625,13.166414829864502,7.513174Q12.278244829864501,8.40135,12.278244829864501,9.65742L12.278244829864501,14.63625C12.278244829864501,15.04425,12.608994829864502,15.375,13.016994829864501,15.375L13.260774829864502,15.375L13.260774829864502,15.37277L15.842194829864502,15.37277C16.2501948298645,15.37277,16.5809448298645,15.04202,16.5809448298645,14.63402L16.5809448298645,12.29979C16.5809448298645,11.89179,16.2501948298645,11.56105,15.842194829864502,11.56105L13.260774829864502,11.56105L13.260774829864502,9.65742Q13.260774829864502,8.80833,13.861174829864503,8.20793Q14.461574829864503,7.607534,15.310664829864502,7.607534Z" fill-rule="evenodd" fill="currentColor" fill-opacity="1"/></g></g></g></svg>
