<svg xmlns="http://www.w3.org/2000/svg" xmlns:xlink="http://www.w3.org/1999/xlink" fill="none" version="1.1" width="22" height="22" viewBox="0 0 22 22"><defs><clipPath id="master_svg0_5021_084250"><rect x="4" y="4" width="14" height="14" rx="0"/></clipPath></defs><g><g clip-path="url(#master_svg0_5021_084250)"><g transform="matrix(1,0,0,-1,0,31.333984375)"><path d="M7.50022453125,16.2503251875L7.50022453125,16.2519921875L8.08523453125,16.2519951875L8.08523453125,15.0819891875L7.50022453125,15.0819921875L7.50022453125,15.0836591875L7.44226453125,15.0836591875Q6.62229453125,15.0836591875,6.04408453125,15.6496532875Q5.45856053125,16.2227971875,5.45856153125,17.0459321875L5.45856153125,19.1444721875Q5.45856153125,19.3922421875,5.28189853125,19.5732721875Q5.10970953125,19.749722187499998,4.87522753125,19.7503221875L4.87361933125,19.7503221875L4.81689453125,19.7503221875L4.81689453125,19.7486621875L4.23189153125,19.7486521875L4.23189153125,20.9186621875L4.81689453125,20.9186621875L4.81689453125,20.9169921875L4.87522753125,20.9169921875Q5.11685253125,20.9169921875,5.2877065312500005,21.0878421875Q5.45856153125,21.2587021875,5.45856153125,21.5003221875L5.45856153125,23.600322187499998Q5.45856153125,24.4218521875,6.03946453125,25.0027521875Q6.62037453125,25.5836621875,7.44189453125,25.5836621875L7.50022453125,25.5836621875L7.50022453125,25.585322187499997L8.08523453125,25.5853321875L8.08523453125,24.4153221875L7.50022453125,24.4153221875L7.50022453125,24.4169921875L7.44189453125,24.4169921875Q7.10362453125,24.4169921875,6.86442453125,24.1777921875Q6.62522453125,23.938602187500003,6.62522453125,23.600322187499998L6.62522453125,21.5003221875Q6.62522453125,20.8202521875,6.17406453125,20.3270621875Q6.62522453125,19.8253021875,6.62522453125,19.1444721875L6.62522453125,17.0459321875Q6.62522453125,16.7133621875,6.86018453125,16.4833761875Q7.09826453125,16.2503251875,7.44226453125,16.2503251875L7.50022453125,16.2503251875ZM14.49977453125,15.0836591875L14.49977453125,15.0819921875L13.91476453125,15.0819891875L13.91476453125,16.2519951875L14.49977453125,16.2519921875L14.49977453125,16.2503251875L14.55810453125,16.2503251875Q14.89639453125,16.2503251875,15.13559453125,16.4895211875Q15.37479453125,16.7287221875,15.37479453125,17.0669921875L15.37479453125,19.1669921875Q15.37479453125,19.842522187500002,15.81989453125,20.3336621875Q15.37479453125,20.8247921875,15.37479453125,21.5003221875L15.37479453125,23.600322187499998Q15.37479453125,23.938602187500003,15.13559453125,24.1777921875Q14.89639453125,24.4169921875,14.55810453125,24.4169921875L14.49977453125,24.4169921875L14.49977453125,24.4153221875L13.91476453125,24.4153221875L13.91476453125,25.5853321875L14.49977453125,25.585322187499997L14.49977453125,25.5836621875L14.55810453125,25.5836621875Q15.37959453125,25.5836621875,15.96049453125,25.0027521875Q16.54139453125,24.4218521875,16.54139453125,23.600322187499998L16.54139453125,21.5003221875Q16.54139453125,20.9169921875,17.12479453125,20.9169921875L17.18309453125,20.9169921875L17.18309453125,20.9186621875L17.76809453125,20.9186621875L17.76809453125,19.7486521875L17.18309453125,19.7486621875L17.18309453125,19.7503221875L17.12479453125,19.7503221875Q16.54139453125,19.7503221875,16.54139453125,19.1669921875L16.54139453125,17.0669921875Q16.54139453125,16.2454681875,15.96049453125,15.6645637575Q15.37959453125,15.0836591875,14.55810453125,15.0836591875L14.49977453125,15.0836591875L14.49977453125,15.0836591875Z" fill-rule="evenodd" fill="currentColor" fill-opacity="1"/></g></g></g></svg>
