<svg xmlns="http://www.w3.org/2000/svg" xmlns:xlink="http://www.w3.org/1999/xlink" fill="none" version="1.1" width="44" height="44" viewBox="0 0 44 44"><defs><clipPath id="master_svg0_3706_112188"><rect x="0" y="0" width="44" height="44" rx="0"/></clipPath><mask id="master_svg1_3706_112188/907_064740" style="mask-type:alpha" maskUnits="userSpaceOnUse"><g><path d="M6.419109,2.75C10.24876,2.75,24.9059,2.75,28.5229,2.75C29.0394,2.75,29.5428,2.980359,29.8902,3.362562C31.5528,5.1913599999999995,36.4613,10.590810000000001,38.0196,12.30484C38.3263,12.64231,38.5,13.0797,38.5,13.5358C38.5,17.3956,38.5,36.0091,38.5,40.3456C38.5,40.8519,38.0934,41.25,37.5871,41.25C32.8541,41.25,11.145859999999999,41.25,6.412894,41.25C5.906632,41.25,5.5,40.841,5.5,40.3348C5.5,35.0909,5.5,8.90915,5.5,3.665223C5.5,3.158961,5.912848,2.75,6.419109,2.75" fill="#FFFFFF" fill-opacity="1"/></g></mask></defs><g clip-path="url(#master_svg0_3706_112188)"><g><path d="M7.30702,2.75C12.12538,2.75,25.1433,2.75,28.5229,2.75C29.0394,2.75,29.5428,2.980359,29.8902,3.362562C31.5528,5.1913599999999995,36.4613,10.590810000000001,38.0196,12.30484C38.3263,12.64231,38.5,13.0797,38.5,13.5358C38.5,17.1693,38.5,33.8769,38.5,39.4413C38.5,40.4538,37.6932,41.25,36.6807,41.25C30.9143,41.25,13.08566,41.25,7.31934,41.25C6.3068159999999995,41.25,5.5,40.4469,5.5,39.4344C5.5,32.9593,5.5,11.04068,5.5,4.56557C5.5,3.55305,6.294494,2.75,7.30702,2.75" fill="#666666" fill-opacity="1"/></g><g mask="url(#master_svg1_3706_112188/907_064740)"><g><path d="M30.23700409375,12.8333C32.11336609375,12.8333,36.47659609375,12.8333,39.11309609375,12.8333C39.91349609375,12.8333,40.348796093749996,11.8627,39.80419609375,11.2761C37.55802609375,8.85718,33.24727609375,4.21484,30.91889609375,1.70735C30.35198609375,1.09684,29.33349609375,1.46833,29.33349609375,2.30145C29.33349609375,5.15973,29.33349609375,9.9025,29.33349609375,11.9005C29.33349609375,12.4067,29.73074309375,12.8333,30.23700409375,12.8333" fill="#A9A9A9" fill-opacity="1"/></g></g><g transform="matrix(0,-1,1,0,-12.833984375,40.333984375)"><path d="M16.26847,25.980355375L13.060138,29.647024375L14.439862,30.854284375L16.95833,27.976024375L19.4768,30.854284375L20.85653,29.647024375L17.6482,25.980355375Q17.60795,25.934364375,17.56196,25.894122375Q17.42474,25.774053375,17.25202,25.715636375Q17.07929,25.657219375,16.89736,25.669348375Q16.71543,25.681476375,16.55198,25.762305375Q16.38854,25.843133375,16.26847,25.980355375Z" fill-rule="evenodd" fill="#FFFFFF" fill-opacity="1"/></g><g transform="matrix(0,1,-1,0,50.416015625,-10.083984375)"><path d="M32.76847,19.562386625L29.560138,23.229055625L30.939862,24.436315625L33.458330000000004,21.558055625L35.97681,24.436315625L37.35653,23.229055625L34.1482,19.562386625Q34.10795,19.516395625,34.06196,19.476153625Q33.99402,19.416701625,33.91578,19.371646625Q33.83754,19.326592625,33.75201,19.297667625Q33.66649,19.268742625,33.57697,19.257057625Q33.48744,19.245373625,33.39736,19.251379625Q33.30727,19.257384625,33.22009,19.280849625Q33.13291,19.304314625,33.05198,19.344336625Q32.97105,19.384358625,32.89949,19.439399625Q32.82792,19.494440625,32.76847,19.562386625Z" fill-rule="evenodd" fill="#FFFFFF" fill-opacity="1"/></g><g><path d="M19.733261,27.746664375L22.02493,18.121665375L23.80841,18.546303375L21.516739,28.171304375L19.733261,27.746664375Z" fill-rule="evenodd" fill="#FFFFFF" fill-opacity="1"/></g></g></svg>