<svg xmlns="http://www.w3.org/2000/svg" xmlns:xlink="http://www.w3.org/1999/xlink" fill="none" version="1.1" width="22" height="22" viewBox="0 0 22 22"><defs><clipPath id="master_svg0_3508_118328"><rect x="18" y="4" width="14" height="14" rx="0"/></clipPath></defs><g><g transform="matrix(-1,0,0,1,36,0)" clip-path="url(#master_svg0_3508_118328)"><g><path d="M25.592174375,5.065537841796875L23.550504375,16.732212841796873L23.449954375,17.306812841796877L24.599154375,17.507912841796873L26.741374375,5.266647841796875L26.841934375,4.692046841796875L25.692724375,4.490936279796875L25.592174375,5.065537841796875ZM18.761983375,11.837382841796874L22.681954375,15.616212841796875L23.491644375,14.776212841796875L19.991924375,11.402542841796876L23.491654375,7.7767628417968755L22.652234375,6.966522841796875L22.247124375,7.3862328417968754L18.747119375,11.012292841796874L18.746857375,11.012562841796875C18.639484975,11.123942841796875,18.580757645,11.273422841796876,18.5835943,11.428102841796875C18.586430955,11.582792841796875,18.650599275,11.730012841796874,18.761983375,11.837382841796874ZM26.928284375,14.371382841796875L30.008084375,11.402542841796876L26.913424374999998,8.196472841796876L26.508304375,7.7767628417968755L27.347724375,6.966522841796875L31.252884375,11.012292841796874L31.253084375,11.012562841796875C31.360484375,11.123942841796875,31.419184375,11.273422841796876,31.416384375,11.428102841796875C31.413484375,11.582792841796875,31.349384375,11.730012841796874,31.237984375,11.837382841796874L27.318004375,15.616212841796875L26.508314375,14.776212841796875L26.928284375,14.371382841796875Z" fill-rule="evenodd" fill="currentColor" fill-opacity="1"/></g></g></g></svg>
