<?xml version="1.0" encoding="UTF-8"?>
<svg width="12px" height="12px" viewBox="0 0 12 12" version="1.1" xmlns="http://www.w3.org/2000/svg" xmlns:xlink="http://www.w3.org/1999/xlink">
    <g stroke="none" stroke-width="1" fill="none" fill-rule="evenodd">
        <g transform="translate(-1, -1)" fill="currentColor">
            <g transform="translate(1.1665, 1.1572)">
                <path d="M0,0.59291552 L0,11.0928825 C0,11.4150825 0.261167,11.6762825 0.583333,11.6762825 L4.375,11.6759825 C4.69717,11.6759825 4.95819,11.4153825 4.95819,11.0931825 L4.95819,0.59320052 C4.95819,0.27103452 4.69717,0.00958251953 4.375,0.00958251953 L0.583333,0.00958251953 C0.261167,0.00958251953 0,0.27074952 0,0.59291552 Z M1.16667,10.5095825 L1.16667,1.17625252 L3.79181,1.17596252 L3.79181,10.5095825 L1.16667,10.5095825 Z" id="形状"></path>
                <path d="M6.70849609,0.583618 L6.70849609,11.0836 C6.70849609,11.4058 6.96952109,11.6664 7.29168709,11.6664 L11.0834961,11.6664 C11.4056661,11.6664 11.6666861,11.4058 11.6666861,11.0836 L11.6666861,0.583618 C11.6666861,0.261452 11.4056661,0 11.0834961,0 L7.29168709,0 C6.96952109,0 6.70849609,0.261452 6.70849609,0.583618 Z M7.87530609,10.5 L7.87530609,1.16638 L10.5003061,1.16638 L10.5003061,10.5 L7.87530609,10.5 Z" id="形状"></path>
            </g>
        </g>
    </g>
</svg>
