<?xml version="1.0" encoding="UTF-8"?>
<svg width="12px" height="12px" viewBox="0 0 12 12" version="1.1" xmlns="http://www.w3.org/2000/svg" xmlns:xlink="http://www.w3.org/1999/xlink">
    <title>编组</title>
    <g id="页面-1" stroke="none" stroke-width="1" fill="none" fill-rule="evenodd">
        <g id="column-color" transform="translate(-1, -1)" fill="#FF9500">
            <g id="编组" transform="translate(1.167, 1.1572)">
                <path d="M0,0.592427238 L0,11.0923942 C0,11.4145942 0.261167,11.6757942 0.583333,11.6757942 L4.375,11.6754942 C4.69717,11.6754942 4.95819,11.4148942 4.95819,11.0926942 L4.95819,0.592712238 C4.95819,0.270546238 4.69717,0.00909423828 4.375,0.00909423828 L0.583333,0.00909423828 C0.261167,0.00909423828 0,0.270261238 0,0.592427238 Z M1.16667,10.5090942 L1.16667,1.17576424 L3.79181,1.17547424 L3.79181,10.5090942 L1.16667,10.5090942 Z" id="形状"></path>
                <path d="M6.70800781,0.583618 L6.70800781,11.0836 C6.70800781,11.4058 6.96903281,11.6664 7.29119881,11.6664 L11.0830078,11.6664 C11.4051778,11.6664 11.6661978,11.4058 11.6661978,11.0836 L11.6661978,0.583618 C11.6661978,0.261452 11.4051778,0 11.0830078,0 L7.29119881,0 C6.96903281,0 6.70800781,0.261452 6.70800781,0.583618 Z M7.87481781,10.5 L7.87481781,1.16638 L10.4998178,1.16638 L10.4998178,10.5 L7.87481781,10.5 Z" id="形状"></path>
            </g>
        </g>
    </g>
</svg>