<svg xmlns="http://www.w3.org/2000/svg" xmlns:xlink="http://www.w3.org/1999/xlink" fill="none" version="1.1" width="44" height="44" viewBox="0 0 44 44"><defs><clipPath id="master_svg0_5429_082238"><rect x="0" y="0" width="44" height="44" rx="0"/></clipPath><mask id="master_svg1_5429_082238/5429_082266" style="mask-type:alpha" maskUnits="userSpaceOnUse"><g><path d="M6.419109,2.75C10.24876,2.75,24.9059,2.75,28.5229,2.75C29.0394,2.75,29.5428,2.980359,29.8902,3.362562C31.5528,5.1913599999999995,36.4613,10.590810000000001,38.0196,12.30484C38.3263,12.64231,38.5,13.0797,38.5,13.5358C38.5,17.3956,38.5,36.0091,38.5,40.3456C38.5,40.8519,38.0934,41.25,37.5871,41.25C32.8541,41.25,11.145859999999999,41.25,6.412894,41.25C5.906632,41.25,5.5,40.841,5.5,40.3348C5.5,35.0909,5.5,8.90915,5.5,3.665223C5.5,3.158961,5.912848,2.75,6.419109,2.75" fill="#FFFFFF" fill-opacity="1"/></g></mask></defs><g clip-path="url(#master_svg0_5429_082238)"><g><path d="M7.30702,2.75C12.12538,2.75,25.1433,2.75,28.5229,2.75C29.0394,2.75,29.5428,2.980359,29.8902,3.362562C31.5528,5.1913599999999995,36.4613,10.590810000000001,38.0196,12.30484C38.3263,12.64231,38.5,13.0797,38.5,13.5358C38.5,17.1693,38.5,33.8769,38.5,39.4413C38.5,40.4538,37.6932,41.25,36.6807,41.25C30.9143,41.25,13.08566,41.25,7.31934,41.25C6.3068159999999995,41.25,5.5,40.4469,5.5,39.4344C5.5,32.9593,5.5,11.04068,5.5,4.56557C5.5,3.55305,6.294494,2.75,7.30702,2.75" fill="#B8C4C8" fill-opacity="1"/></g><g mask="url(#master_svg1_5429_082238/5429_082266)"><g><path d="M30.23700409375,12.8333C33.01602609375,12.8333,41.25019609375,12.8333,41.25019609375,12.8333C41.25019609375,12.8333,29.33349609375,0,29.33349609375,0C29.33349609375,0,29.33349609375,8.94772,29.33349609375,11.9005C29.33349609375,12.4067,29.73074309375,12.8333,30.23700409375,12.8333" fill="#D8E5EA" fill-opacity="1"/></g></g><g><path d="M14.77319,27.416015625L14.77319,24.397465625L17.92603,24.397465625L17.92603,23.070805625L14.77319,23.070805625L14.77319,21.051265625L18.22681,21.051265625L18.22681,19.665525625L13.151119999999999,19.665525625L13.151119999999999,27.416015625L14.77319,27.416015625ZM19.5803,27.416015625L21.1433,27.416015625L21.1433,21.491695625L19.5803,21.491695625L19.5803,27.416015625ZM20.3645,20.664555625C20.923099999999998,20.664555625,21.2883,20.336915625,21.2883,19.874995625C21.2883,19.407715625,20.923099999999998,19.085445625,20.3645,19.085445625C19.8005,19.085445625,19.4407,19.407715625,19.4407,19.874995625C19.4407,20.336915625,19.8005,20.664555625,20.3645,20.664555625ZM22.7761,27.416015625L24.3391,27.416015625L24.3391,19.230465625L22.7761,19.230465625L22.7761,27.416015625ZM28.5232,22.560545625C29.2537,22.560545625,29.7263,23.049315625,29.7585,23.833495625L27.2341,23.833495625C27.2878,23.065425625,27.7981,22.560545625,28.5232,22.560545625ZM29.7908,25.729495625C29.6243,26.121585625,29.2,26.341795625,28.5823,26.341795625C27.7659,26.341795625,27.2502,25.793945625,27.2288,24.913085625L27.2288,24.832515625L31.2947,24.832515625L31.2947,24.354495625C31.2947,22.474605625,30.2634,21.362795625,28.5178,21.362795625C26.7561,21.362795625,25.6711,22.555175625,25.6711,24.483395625C25.6711,26.406245625,26.7346,27.544915625,28.5393,27.544915625C29.9895,27.544915625,31.01,26.846675625,31.2463,25.729495625L29.7908,25.729495625Z" fill="#FFFFFF" fill-opacity="1"/></g></g></svg>