<svg xmlns="http://www.w3.org/2000/svg" xmlns:xlink="http://www.w3.org/1999/xlink" fill="none" version="1.1" width="22" height="22" viewBox="0 0 22 22"><defs><clipPath id="master_svg0_4060_084950"><rect x="18" y="4" width="14" height="14" rx="0"/></clipPath></defs><g><g transform="matrix(-1,0,0,1,36,0)" clip-path="url(#master_svg0_4060_084950)"><g><path d="M22.0836621875,7.499676507720947L22.0836621875,5.749674507720947Q22.0836621875,5.692220507720947,22.0948621875,5.635871507720947Q22.1060721875,5.579522507720947,22.1280621875,5.526442507720947Q22.150052187500002,5.473362507720947,22.1819721875,5.425591507720947Q22.2138921875,5.377820507720947,22.2545121875,5.337195507720947Q22.2951421875,5.296569507720947,22.3429121875,5.264650307720947Q22.3906821875,5.232731007720948,22.4437621875,5.210744507720947Q22.4968421875,5.188758107720948,22.5531921875,5.177549507720947Q22.6095421875,5.166340946720947,22.6669921875,5.166340946720947L30.2502921875,5.166340946720947Q30.3077921875,5.166340946720947,30.3640921875,5.177549507720947Q30.420492187500003,5.188758107720948,30.4735921875,5.210744507720947Q30.5265921875,5.232731007720948,30.574392187500003,5.264650307720947Q30.622192187499998,5.296569507720947,30.6627921875,5.337195507720947Q30.7033921875,5.377820507720947,30.7353921875,5.425591507720947Q30.7672921875,5.473362507720947,30.7892921875,5.526442507720947Q30.811192187499998,5.579522507720947,30.8224921875,5.635871507720947Q30.8336921875,5.692220507720947,30.8336921875,5.749674507720947L30.8336921875,13.333006507720947Q30.8336921875,13.390456507720947,30.8224921875,13.446806507720947Q30.811192187499998,13.503156507720947,30.7892921875,13.556236507720948Q30.7672921875,13.609316507720948,30.7353921875,13.657086507720948Q30.7033921875,13.704856507720947,30.6627921875,13.745486507720948Q30.622192187499998,13.786116507720948,30.574392187500003,13.818036507720947Q30.5265921875,13.849946507720947,30.4735921875,13.871936507720948Q30.420492187500003,13.893926507720947,30.3640921875,13.905136507720947Q30.3077921875,13.916336507720947,30.2502921875,13.916336507720947L28.5003221875,13.916336507720947L28.5003221875,16.249666507720946C28.5003221875,16.571866507720948,28.2391621875,16.832966507720947,27.9169921875,16.832966507720947L19.7503251875,16.832966507720947C19.4281591875,16.832966507720947,19.1669921875,16.571866507720948,19.1669921875,16.249666507720946L19.1669921875,8.083006507720947C19.1669921875,7.760846507720947,19.4281591875,7.499676507720947,19.7503251875,7.499676507720947L22.0836621875,7.499676507720947ZM23.2503221875,7.499676507720947L27.9169921875,7.499676507720947C28.2391621875,7.499676507720947,28.5003221875,7.760846507720947,28.5003221875,8.083006507720947L28.5003221875,12.749676507720947L29.6669921875,12.749676507720947L29.6669921875,6.333006507720947L23.2503221875,6.333006507720947L23.2503221875,7.499676507720947ZM20.3336621875,8.666336507720947L20.3336621875,15.666366507720948L27.3336621875,15.666366507720948L27.3336621875,8.666336507720947L20.3336621875,8.666336507720947Z" fill-rule="evenodd" fill="currentColor" fill-opacity="1"/></g></g></g></svg>
