<svg xmlns="http://www.w3.org/2000/svg" xmlns:xlink="http://www.w3.org/1999/xlink" fill="none" version="1.1" width="14.9033203125" height="14.15234375" viewBox="0 0 14.9033203125 14.15234375"><g><g><path d="M12.687624973773957,1.1682815555878907L1.3126559737739563,1.1682815555878907Q1.2553469737739564,1.1682815555878907,1.1991379737739563,1.1794621525878906Q1.1429299737739562,1.1906426525878906,1.0899819737739562,1.2125741525878906Q1.0370349737739564,1.2345055525878905,0.9893839737739563,1.2663451525878906Q0.9417329737739563,1.2981851525878907,0.9012079737739563,1.3387091525878907Q0.8606839737739563,1.3792331525878907,0.8288447737739563,1.4268841525878906Q0.7970052737739564,1.4745351525878907,0.7750737737739563,1.5274821525878906Q0.7531423737739563,1.5804301525878905,0.7419617737739563,1.6366381525878906Q0.7307811977739563,1.6928471525878908,0.7307811977739563,1.7501561525878906L0.7307811977739563,12.250125152587891Q0.7307811977739563,12.307425152587891,0.7419617737739563,12.36362515258789Q0.7531423737739563,12.41992515258789,0.7750737737739563,12.472825152587891Q0.7970052737739564,12.52582515258789,0.8288447737739563,12.573425152587891Q0.8606839737739563,12.62112515258789,0.9012079737739563,12.66162515258789Q0.9417329737739563,12.702125152587891,0.9893839737739563,12.73392515258789Q1.0370349737739564,12.76582515258789,1.0899819737739562,12.78772515258789Q1.1429299737739562,12.809625152587891,1.1991379737739563,12.82082515258789Q1.2553469737739564,12.83202515258789,1.3126559737739563,12.83202515258789L8.308744973773956,12.83202515258789L8.308744973773956,11.66832515258789L5.686344973773957,11.66832515258789L5.686344973773957,4.66564515258789L12.105824973773956,4.66564515258789L12.105824973773956,7.578285152587891L13.269524973773956,7.578285152587891L13.269524973773956,1.7501561525878906Q13.269524973773956,1.6928471525878908,13.258324973773956,1.6366381525878906Q13.247124973773957,1.5804301525878905,13.225224973773956,1.5274821525878906Q13.203324973773956,1.4745351525878907,13.171424973773956,1.4268841525878906Q13.139624973773957,1.3792331525878907,13.099124973773955,1.3387091525878907Q13.058624973773956,1.2981851525878907,13.010924973773957,1.2663451525878906Q12.963324973773956,1.2345055525878905,12.910324973773957,1.2125741525878906Q12.857424973773956,1.1906426525878906,12.801124973773955,1.1794621525878906Q12.744924973773957,1.1682815555878907,12.687624973773957,1.1682815555878907ZM1.8945349737739563,2.3320351525878906L12.105824973773956,2.3320351525878906L12.105824973773956,3.5018951525878905L1.8945349737739563,3.5018951525878905L1.8945349737739563,2.3320351525878906ZM1.8945349737739563,7.584665152587891L4.522594973773956,7.584665152587891L4.522594973773956,4.66564515258789L1.8945349737739563,4.66564515258789L1.8945349737739563,7.584665152587891ZM1.8945349737739563,11.66832515258789L4.522594973773956,11.66832515258789L4.522594973773956,8.74841515258789L1.8945349737739563,8.74841515258789L1.8945349737739563,11.66832515258789Z" fill-rule="evenodd" fill="#5C6270" fill-opacity="1"/></g><g transform="matrix(0.7071067690849304,0.7071067690849304,-0.7071067690849304,0.7071067690849304,8.287397643958684,-5.960672440531198)"><path d="M13.2744171875,8.9584975L13.2744171875,7.6817075L13.2744171875,7.0234375L14.444417187500001,7.0234375L14.444417187500001,8.9584975L16.3791471875,8.9584975L16.3791471875,10.1284975L14.444417187500001,10.1284975L14.444417187500001,12.0637175L13.2744171875,12.0637175L13.2744171875,11.405447500000001L13.2744171875,10.1284975L11.9971371875,10.1284975L11.3388671875,10.1284975L11.3388671875,8.9584975L13.2744171875,8.9584975Z" fill-rule="evenodd" fill="currentColor" fill-opacity="1"/></g></g></svg>
