<svg xmlns="http://www.w3.org/2000/svg" xmlns:xlink="http://www.w3.org/1999/xlink" fill="none" version="1.1" width="44" height="44" viewBox="0 0 44 44"><defs><clipPath id="master_svg0_3706_112114"><rect x="0" y="0" width="44" height="44" rx="0"/></clipPath><mask id="master_svg1_3706_112114/3706_112321" style="mask-type:alpha" maskUnits="userSpaceOnUse"><g><path d="M6.419109,2.75C10.24876,2.75,24.9059,2.75,28.5229,2.75C29.0394,2.75,29.5428,2.980359,29.8902,3.362562C31.5528,5.1913599999999995,36.4613,10.590810000000001,38.0196,12.30484C38.3263,12.64231,38.5,13.0797,38.5,13.5358C38.5,17.3956,38.5,36.0091,38.5,40.3456C38.5,40.8519,38.0934,41.25,37.5871,41.25C32.8541,41.25,11.145859999999999,41.25,6.412894,41.25C5.906632,41.25,5.5,40.841,5.5,40.3348C5.5,35.0909,5.5,8.90915,5.5,3.665223C5.5,3.158961,5.912848,2.75,6.419109,2.75" fill="#FFFFFF" fill-opacity="1"/></g></mask></defs><g clip-path="url(#master_svg0_3706_112114)"><g><path d="M7.30702,2.75C12.12538,2.75,25.1433,2.75,28.5229,2.75C29.0394,2.75,29.5428,2.980359,29.8902,3.362562C31.5528,5.1913599999999995,36.4613,10.590810000000001,38.0196,12.30484C38.3263,12.64231,38.5,13.0797,38.5,13.5358C38.5,17.1693,38.5,33.8769,38.5,39.4413C38.5,40.4538,37.6932,41.25,36.6807,41.25C30.9143,41.25,13.08566,41.25,7.31934,41.25C6.3068159999999995,41.25,5.5,40.4469,5.5,39.4344C5.5,32.9593,5.5,11.04068,5.5,4.56557C5.5,3.55305,6.294494,2.75,7.30702,2.75" fill="#3377FF" fill-opacity="1"/></g><g mask="url(#master_svg1_3706_112114/3706_112321)"><g><path d="M30.23700409375,12.8333C32.11336609375,12.8333,36.47659609375,12.8333,39.11309609375,12.8333C39.91349609375,12.8333,40.348796093749996,11.8627,39.80419609375,11.2761C37.55802609375,8.85718,33.24727609375,4.21484,30.91889609375,1.70735C30.35198609375,1.09684,29.33349609375,1.46833,29.33349609375,2.30145C29.33349609375,5.15973,29.33349609375,9.9025,29.33349609375,11.9005C29.33349609375,12.4067,29.73074309375,12.8333,30.23700409375,12.8333" fill="#82ABFF" fill-opacity="1"/></g></g><g><path d="M14.96900390625,21.5217L18.15900390625,31L20.10233390625,31L22.00900390625,24.07L23.897333906249997,31L25.84070390625,31L29.03070390625,21.5217L26.72070390625,21.5217L24.83230390625,28.525L22.962333906250002,21.5217L21.037333906249998,21.5217L19.16733390625,28.525L17.27900390625,21.5217L14.96900390625,21.5217Z" fill="#FFFFFF" fill-opacity="1"/></g></g></svg>