<svg xmlns="http://www.w3.org/2000/svg" xmlns:xlink="http://www.w3.org/1999/xlink" fill="none" version="1.1" width="22" height="22" viewBox="0 0 22 22"><defs><clipPath id="master_svg0_3706_106506"><rect x="4" y="4" width="14" height="14" rx="0"/></clipPath></defs><g><g clip-path="url(#master_svg0_3706_106506)"><g><path d="M16.8328857421875,7.40278L11.3018057421875,7.40278L10.3094457421875,5.996935C10.2001457421875,5.8420879,10.022425742187501,5.75,9.8328857421875,5.75L5.1662187421875,5.75C4.8440527421875,5.75,4.5828857421875,6.011167,4.5828857421875,6.333333L4.5828857421875,16.25C4.5828857421875,16.572200000000002,4.8440527421875,16.8333,5.1662187421875,16.8333L16.8328857421875,16.8333C17.155085742187502,16.8333,17.4161857421875,16.572200000000002,17.4161857421875,16.25L17.4161857421875,7.98611C17.4161857421875,7.66394,17.155085742187502,7.40278,16.8328857421875,7.40278ZM10.9995557421875,8.56944C10.810015742187499,8.56944,10.6322957421875,8.477360000000001,10.522985742187501,8.32251L9.5306257421875,6.91667L5.7495557421875,6.91667L5.7495557421875,15.66667L16.2495857421875,15.66667L16.2495857421875,8.56944L10.9995557421875,8.56944ZM11.5833757421875,10.41732L11.5833757421875,12.5116L12.3378657421875,11.757950000000001L12.7505757421875,11.34571L13.5750757421875,12.17112L11.4143257421875,14.32946C11.1865657421875,14.55696,10.8175757421875,14.55696,10.5898257421875,14.32946L8.8378657421875,12.579460000000001L8.4251557421875,12.16722L9.2496557421875,11.3418L9.6623657421875,11.75405L10.4167057421875,12.50755L10.4167057421875,9.83398L11.5833757421875,9.83398L11.5833757421875,10.41732Z" fill-rule="evenodd" fill="currentColor" fill-opacity="1"/></g></g></g></svg>
