<svg xmlns="http://www.w3.org/2000/svg" xmlns:xlink="http://www.w3.org/1999/xlink" fill="none" version="1.1" width="22" height="22" viewBox="0 0 22 22"><defs><clipPath id="master_svg0_17_02367"><rect x="4" y="4" width="14" height="14" rx="0"/></clipPath></defs><g><g clip-path="url(#master_svg0_17_02367)"><g><rect x="5.584999978542328" y="8.584999978542328" width="7.830000042915344" height="7.830000042915344" rx="0" fill-opacity="0" stroke-opacity="1" stroke="#5C6270" fill="none" stroke-width="1.1699999570846558"/></g><g><path d="M11.375,6.17L11.375,5L13.625,5L13.625,6.17L11.375,6.17ZM15.83,8.375L17,8.375L17,10.625L15.83,10.625L15.83,8.375Z" fill-rule="evenodd" fill="#5C6270" fill-opacity="1"/></g><g><path d="M8,6.1700099999999996L10.25,6.1700099999999996L10.25,5L8,5L8,6.1700099999999996Z" fill="#5C6270" fill-opacity="1"/></g><g><path d="M8,13.092592861328125L11,13.092592861328125L11,11.922576901328124L8,11.922576901328124L8,13.092592861328125Z" fill="#5C6270" fill-opacity="1"/></g><g transform="matrix(-2.2348338291067193e-8,-1,1,-2.2348338291067193e-8,-5.101135054671305,22.93109162183059)"><path d="M8.91497802734375,15.17752328125L11.91497802734375,15.17752328125L11.91497802734375,14.00750732125L8.91497802734375,14.00750732125L8.91497802734375,15.17752328125Z" fill="#5C6270" fill-opacity="1"/></g><g><path d="M14.75,6.1700099999999996L17,6.1700099999999996L17,5L14.75,5L14.75,6.1700099999999996Z" fill="#5C6270" fill-opacity="1"/></g><g><path d="M14.75,13.999996572265625L17,13.999996572265625L17,12.829986572265625L14.75,12.829986572265625L14.75,13.999996572265625Z" fill="#5C6270" fill-opacity="1"/></g><g><path d="M15.83001708984375,7.25L16.99999708984375,7.25L16.99999708984375,5L15.83001708984375,5L15.83001708984375,7.25Z" fill="#5C6270" fill-opacity="1"/></g><g><path d="M8,7.25L9.16998,7.25L9.16998,5L8,5L8,7.25Z" fill="#5C6270" fill-opacity="1"/></g><g><path d="M15.83001708984375,14L16.99999708984375,14L16.99999708984375,11.75L15.83001708984375,11.75L15.83001708984375,14Z" fill="currentColor" fill-opacity="1"/></g></g></g></svg>
