<?xml version="1.0" encoding="UTF-8"?>
<svg width="12px" height="12px" viewBox="0 0 12 12" version="1.1" xmlns="http://www.w3.org/2000/svg" xmlns:xlink="http://www.w3.org/1999/xlink">
    <g stroke="none" stroke-width="1" fill="none" fill-rule="evenodd">
        <g id="file" transform="translate(-1, -1)" fill="currentColor">
            <path d="M5.76273336,10.0081838 L10.0937534,5.67714375 L10.5062334,5.26466375 L9.68127336,4.43970375 L4.93777336,9.18323375 C4.88082003,9.24018708 4.81207003,9.26866375 4.73152336,9.26866375 C4.65098336,9.26866375 4.58223669,9.24018708 4.52528336,9.18323375 C4.38779003,9.04573375 4.38779336,8.90822708 4.52529336,8.77071375 L9.68127336,3.61476375 C9.90908003,3.38695708 10.1840634,3.27305375 10.5062234,3.27305375 C10.82839,3.27305375 11.10338,3.38696042 11.3311934,3.61477375 C11.5589934,3.84256708 11.6728934,4.11754708 11.6728934,4.43971375 C11.6728934,4.76188708 11.55899,5.03688042 11.3311834,5.26469375 L6.17520336,10.4206537 C5.77654336,10.8193138 5.29531669,11.0186438 4.73152336,11.0186438 C4.16773003,11.0186438 3.68650669,10.8193138 3.28785336,10.4206537 C2.88919336,10.0219938 2.68986336,9.54077042 2.68986336,8.97698375 C2.68986336,8.41319042 2.88919336,7.93196708 3.28785336,7.53331375 L7.61887336,3.20228375 L8.03135336,2.78980075 L7.20639336,1.96484375 L6.79391336,2.37732275 L2.46289436,6.70835375 C1.83642706,7.33481375 1.52319336,8.09102375 1.52319336,8.97698375 C1.52319336,9.86294375 1.83642676,10.6191538 2.46289336,11.2456138 C3.08936003,11.8721004 3.84557003,12.1853438 4.73152336,12.1853438 C5.61748336,12.1853438 6.37369336,11.8721004 7.00015336,11.2456138 L12.1561934,6.08963375 C12.6117934,5.63402042 12.8395934,5.08404708 12.8395934,4.43971375 C12.8395934,3.79538042 12.6117934,3.24541142 12.1561934,2.78980675 C11.7005467,2.33419342 11.1505567,2.10638675 10.5062234,2.10638675 C9.86189003,2.10638675 9.31192336,2.33419408 8.85632336,2.78980875 L3.70030336,7.94579375 C3.41557003,8.23055375 3.27320336,8.57428375 3.27320336,8.97698375 C3.27320336,9.37968375 3.41557669,9.72341708 3.70032336,10.0081838 C3.98508336,10.2929504 4.32881669,10.4353337 4.73152336,10.4353337 C5.13423669,10.4353337 5.47797336,10.2929504 5.76273336,10.0081838 Z" id="路径"></path>
        </g>
    </g>
</svg>
