<svg xmlns="http://www.w3.org/2000/svg" xmlns:xlink="http://www.w3.org/1999/xlink" fill="none" version="1.1" width="22" height="22" viewBox="0 0 22 22"><defs><clipPath id="master_svg0_4060_084973"><rect x="4" y="4" width="14" height="14" rx="0"/></clipPath></defs><g><g clip-path="url(#master_svg0_4060_084973)"><g><path d="M9.7629775,14.00818375L14.0939975,9.677143749999999L14.5064775,9.26466375L13.6815175,8.43970375L8.9380175,13.18323375Q8.8525875,13.26866375,8.7317675,13.26866375Q8.6109575,13.26866375,8.525527499999999,13.18323375Q8.3192875,12.976983749999999,8.5255375,12.770713749999999L13.6815175,7.61476375Q14.0232275,7.27305375,14.5064675,7.27305375Q14.9897175,7.27305375,15.3314375,7.6147737499999995Q15.6731375,7.95646375,15.6731375,8.43971375Q15.6731375,8.92297375,15.3314275,9.26469375L10.1754475,14.42065375Q9.577457500000001,15.01864375,8.7317675,15.01864375Q7.8860775,15.01864375,7.2880975,14.42065375Q6.6901075,13.82266375,6.6901075,12.976983749999999Q6.6901075,12.131293750000001,7.2880975,11.53331375L11.6191175,7.20228375L12.0315975,6.78980075L11.2066375,5.96484375L10.7941575,6.37732275L6.4631385,10.70835375Q5.5234375521541,11.64804375,5.5234375,12.976983749999999Q5.523437604308,14.30592375,6.4631375,15.24561375Q7.4028375,16.18534375,8.7317675,16.18534375Q10.0607075,16.18534375,11.0003975,15.24561375L16.1564375,10.08963375Q16.8398375,9.40621375,16.8398375,8.43971375Q16.8398375,7.47321375,16.1564375,6.78980675Q15.4729675,6.10638675,14.5064675,6.10638675Q13.5399675,6.10638675,12.8565675,6.78980875L7.7005475,11.94579375Q7.2734475,12.37293375,7.2734475,12.976983749999999Q7.2734475,13.58103375,7.7005675,14.00818375Q8.1277075,14.43533375,8.7317675,14.43533375Q9.3358375,14.43533375,9.7629775,14.00818375Z" fill-rule="evenodd" fill="#6177AC" fill-opacity="1"/></g></g></g></svg>