<svg xmlns="http://www.w3.org/2000/svg" xmlns:xlink="http://www.w3.org/1999/xlink" fill="none" version="1.1" width="22" height="22" viewBox="0 0 22 22"><defs><clipPath id="master_svg0_4060_084806"><rect x="4" y="4" width="14" height="14" rx="0"/></clipPath></defs><g><g clip-path="url(#master_svg0_4060_084806)"><g><path d="M5.166748046875,5.75L5.166748046875,16.25L6.333418046875,16.25L6.333418046875,11.58366L10.416748046875,11.58366L10.416748046875,16.25L11.583418046875,16.25L11.583418046875,5.75L10.416748046875,5.75L10.416748046875,10.41699L6.333418046875,10.41699L6.333418046875,5.75L5.166748046875,5.75ZM14.790908046875,15.08333Q14.147438046875,15.08333,13.764198046875,14.66177L13.371808046875,14.23014L12.508548046875,15.01493Q12.554798046875,15.06581,12.601118046875001,15.11459L12.902018046875,15.44558L12.922368046875,15.42708Q13.844388046875,16.25,14.790908046875,16.25Q15.544348046875,16.25,16.088848046875,15.8417Q16.832548046875,15.28385,16.832548046875,14.20833Q16.832548046875,13.082139999999999,16.030348046874998,12.44033Q15.698548046875,12.17491,15.276548046875,12.03411L16.709648046875,10.191469999999999C16.804648046875002,10.06934,16.847248046875002,9.91449,16.828048046875,9.76098C16.808848046875,9.60746,16.729448046875,9.46786,16.607348046875,9.37288C16.504948046875,9.29324,16.378948046875,9.25,16.249248046875,9.25L12.749238046875,9.25L12.749238046875,10.41667L15.056528046875,10.41667L13.747118046875,12.100200000000001C13.667478046875,12.2026,13.624238046875,12.328610000000001,13.624238046875,12.45833C13.624238046875,12.7805,13.885398046875,13.04167,14.207568046875,13.04167Q14.914408046875,13.04167,15.301448046875,13.35134Q15.665948046875,13.642859999999999,15.665948046875,14.20833Q15.665948046875,15.08333,14.790908046875,15.08333Z" fill-rule="evenodd" fill="currentColor" fill-opacity="1"/></g></g></g></svg>
