<svg xmlns="http://www.w3.org/2000/svg" xmlns:xlink="http://www.w3.org/1999/xlink" fill="none" version="1.1" width="22" height="22" viewBox="0 0 22 22"><defs><clipPath id="master_svg0_4060_091004"><rect x="4" y="4" width="14" height="14" rx="0"/></clipPath></defs><g><g clip-path="url(#master_svg0_4060_091004)"><g><path d="M5.166748046875,16.25L5.166748046875,5.75L6.333418046875,5.75L6.333418046875,10.41699L10.416748046875,10.41699L10.416748046875,5.75L11.583418046875,5.75L11.583418046875,16.25L10.416748046875,16.25L10.416748046875,11.58366L6.333418046875,11.58366L6.333418046875,16.25L5.166748046875,16.25ZM12.458988046875,14.0625L12.458988046875,11.87533Q12.458988046875,10.92354,13.082158046875,10.24372Q13.725398046875,9.54199,14.646488046875,9.54199Q15.337648046875,9.54199,15.901448046875,9.96355Q16.437748046875,10.36447,16.679348046875,11.011980000000001L16.883348046875,11.5585L15.790348046875,11.96639L15.586348046875,11.41987Q15.320948046875,10.70866,14.646488046875,10.70866Q14.238618046875,10.70866,13.942168046875,11.032060000000001Q13.625648046875,11.37736,13.625648046875,11.87533L13.625648046875,12.120899999999999Q14.085138046875,11.875,14.646488046875,11.875Q15.552548046875,11.875,16.193248046875,12.515699999999999Q16.833948046875,13.1564,16.833948046875,14.0625Q16.833948046875,14.9686,16.193248046875,15.6093Q15.552548046875,16.25,14.646488046875,16.25Q13.740388046875,16.25,13.099688046875,15.6093Q12.619678046875,15.12929,12.499288046875,14.50033L12.458988046875,14.50033L12.458988046875,14.0625ZM13.625648046875,14.0625Q13.625648046875,14.48535,13.924638046875,14.78434Q14.223638046875,15.08333,14.646488046875,15.08333Q15.069338046875,15.08333,15.368348046875,14.78434Q15.667348046875,14.48535,15.667348046875,14.0625Q15.667348046875,13.63965,15.368348046875,13.34066Q15.069338046875,13.04167,14.646488046875,13.04167Q14.223638046875,13.04167,13.924638046875,13.34066Q13.625648046875,13.63965,13.625648046875,14.0625Z" fill-rule="evenodd" fill="currentColor" fill-opacity="1"/></g></g></g></svg>
