<svg xmlns="http://www.w3.org/2000/svg" xmlns:xlink="http://www.w3.org/1999/xlink" fill="none" version="1.1" width="22" height="22" viewBox="0 0 22 22"><defs><clipPath id="master_svg0_4060_090941"><rect x="4" y="4" width="14" height="14" rx="0"/></clipPath></defs><g><g clip-path="url(#master_svg0_4060_090941)"><g><path d="M5.166748046875,5.75L5.166748046875,16.25L6.333418046875,16.25L6.333418046875,11.58366L10.416748046875,11.58366L10.416748046875,16.25L11.583418046875,16.25L11.583418046875,5.75L10.416748046875,5.75L10.416748046875,10.41699L6.333418046875,10.41699L6.333418046875,5.75L5.166748046875,5.75ZM14.499508046875,15.08388Q13.916178046875,15.08388,13.916178046875,14.50282L13.916178046875,13.91949L12.749508046875,13.91949Q12.749508046875,13.99819,12.750968046875,14.07383L12.750968046875,14.50282L12.773048046875001,14.50282Q12.845398046875001,15.32338,13.140168046875,15.67664Q13.619038046875,16.250500000000002,14.499508046875,16.250500000000002Q16.541148046875,16.250500000000002,16.541148046875,13.77138Q16.541148046875,11.29221,14.791178046875,11.29221Q14.341538046875,11.29221,13.916178046875,11.377790000000001L13.916178046875,10.711590000000001L16.249548046875,10.711590000000001L16.249548046875,9.54492L13.332848046875,9.54492C13.010678046875,9.54492,12.749508046875,9.806090000000001,12.749508046875,10.128260000000001L12.749508046875,12.17716C12.749508046875,12.49932,13.010678046875,12.76049,13.332848046875,12.76049C13.439468046875,12.76049,13.544058046875,12.731259999999999,13.635238046875,12.675989999999999Q13.646838046875,12.67068,13.663758046875,12.66357Q13.764678046875,12.62114,13.896658046875,12.58278Q14.323058046875,12.45888,14.791178046875,12.45888Q15.074218046875,12.45888,15.192248046875,12.67215Q15.374548046875,13.00143,15.374548046875,13.77138Q15.374548046875,14.53787,15.180248046875,14.83035Q15.011878046875,15.08388,14.499508046875,15.08388ZM13.641988046875,12.67183Q13.916178046875,12.52176,13.916178046875,12.17716C13.916178046875,12.37829,13.812558046875,12.56524,13.641988046875,12.67183Z" fill-rule="evenodd" fill="currentColor" fill-opacity="1"/></g></g></g></svg>
