<svg xmlns="http://www.w3.org/2000/svg" xmlns:xlink="http://www.w3.org/1999/xlink" fill="none" version="1.1" width="22" height="22" viewBox="0 0 22 22"><defs><clipPath id="master_svg0_4060_090940"><rect x="4" y="4" width="14" height="14" rx="0"/></clipPath></defs><g><g clip-path="url(#master_svg0_4060_090940)"><g><path d="M5.166748046875,5.75L5.166748046875,16.25L6.333418046875,16.25L6.333418046875,11.58366L10.416748046875,11.58366L10.416748046875,16.25L11.583418046875,16.25L11.583418046875,5.75L10.416748046875,5.75L10.416748046875,10.41699L6.333418046875,10.41699L6.333418046875,5.75L5.166748046875,5.75ZM16.243848046875,14.79753L17.125648046875,14.79753L17.125648046875,13.63086L16.243848046875,13.63086L16.243848046875,9.83339C16.243848046875,9.64174,16.149748046875,9.46232,15.992048046875,9.35341C15.726948046875,9.17032,15.363648046875,9.23679,15.180548046875,9.50187L12.562338046875,13.292580000000001C12.495038046874999,13.39003,12.458988046875,13.505659999999999,12.458988046875,13.624089999999999L12.458988046875,14.21419C12.458988046875,14.53636,12.720148046875,14.79753,13.042318046875,14.79753L15.077188046875,14.79753L15.077188046875,16.2501L16.243848046875,16.2501L16.243848046875,14.79753ZM15.077188046875,13.63086L15.077188046875,11.70439L13.746588046875,13.63086L15.077188046875,13.63086Z" fill-rule="evenodd" fill="currentColor" fill-opacity="1"/></g></g></g></svg>
