<svg xmlns="http://www.w3.org/2000/svg" xmlns:xlink="http://www.w3.org/1999/xlink" fill="none" version="1.1" width="22" height="22" viewBox="0 0 22 22"><defs><clipPath id="master_svg0_4060_084802"><rect x="4" y="4" width="14" height="14" rx="0"/></clipPath></defs><g><g clip-path="url(#master_svg0_4060_084802)"><g><path d="M5.1667480465,5.75L5.1667480465,16.25L6.3334121875000005,16.25L6.3334121875000005,11.58366L10.7089821875,11.58366L10.7089821875,16.25L11.8756521875,16.25L11.8756521875,5.75L10.7089821875,5.75L10.7089821875,10.41699L6.3334121875000005,10.41699L6.3334121875000005,5.75L5.1667480465,5.75ZM14.7915621875,10.99839L14.7915621875,16.2497L15.9581921875,16.2497L15.9581921875,9.54622C15.9581921875,9.22406,15.6970921875,8.96289,15.3748921875,8.96289C15.2158921875,8.96289,15.0636921875,9.02784,14.9536621875,9.14269L13.5612521875,10.59618L13.1577121875,11.017420000000001L14.0001821875,11.824480000000001L14.4037121875,11.40325L14.7915621875,10.99839Z" fill-rule="evenodd" fill="currentColor" fill-opacity="1"/></g></g></g></svg>
