<svg xmlns="http://www.w3.org/2000/svg" xmlns:xlink="http://www.w3.org/1999/xlink" fill="none" version="1.1" width="22" height="22" viewBox="0 0 22 22"><defs><clipPath id="master_svg0_4060_084806"><rect x="4" y="4" width="14" height="14" rx="0"/></clipPath></defs><g><g clip-path="url(#master_svg0_4060_084806)"><g><path d="M5.1667480465,5.75L5.1667480465,16.25L6.3334121875000005,16.25L6.3334121875000005,11.58366L10.4167521875,11.58366L10.4167521875,16.25L11.583412187499999,16.25L11.583412187499999,5.75L10.4167521875,5.75L10.4167521875,10.41699L6.3334121875000005,10.41699L6.3334121875000005,5.75L5.1667480465,5.75ZM13.3328421875,16.25L16.8328921875,16.25L16.8328921875,15.08333L14.1763321875,15.08333Q14.4783421875,14.65793,15.1309421875,14.03095Q15.9207921875,13.27216,16.2360921875,12.85165Q16.8328921875,12.05586,16.8328921875,11.29167Q16.8328921875,10.37712,16.1636921875,9.78069Q15.5682921875,9.25,14.7911821875,9.25Q14.0140721875,9.25,13.4186721875,9.78069Q12.749512187499999,10.37712,12.749512187499999,11.29167L12.749512187499999,11.875L13.9161821875,11.875L13.9161821875,11.29167Q13.9161821875,10.900079999999999,14.1949421875,10.651620000000001Q14.4585421875,10.41667,14.7911821875,10.41667Q15.1238221875,10.41667,15.3873921875,10.651620000000001Q15.6661921875,10.900079999999999,15.6661921875,11.29167Q15.6661921875,11.66702,15.3026921875,12.15171Q15.0441921875,12.49645,14.3226721875,13.18964Q13.5886621875,13.89483,13.3015921875,14.26956Q12.749512187499999,14.99023,12.749512187499999,15.66667C12.749512187499999,15.9888,13.010682187499999,16.25,13.3328421875,16.25Z" fill-rule="evenodd" fill="currentColor" fill-opacity="1"/></g></g></g></svg>
