<svg xmlns="http://www.w3.org/2000/svg" xmlns:xlink="http://www.w3.org/1999/xlink" fill="none" version="1.1" width="22" height="22" viewBox="0 0 22 22"><defs><clipPath id="master_svg0_3508_118330"><rect x="4" y="4" width="14" height="14" rx="0"/></clipPath></defs><g><g clip-path="url(#master_svg0_3508_118330)"><rect x="4" y="4" width="14" height="14" rx="0" fill-opacity="1"/><g transform="matrix(1,-1.6081230200044232e-16,1.6081230200044232e-16,1,-8.881784197001252e-16,8.881784197001252e-16)"><path d="M5.166667,5.7496748125L5.166667,10.4163378125L13.91667,10.4163378125L13.91667,5.7496748125L5.166667,5.7496748125ZM6.333333,9.2496778125L12.75,9.2496778125L12.75,6.9163408125L6.333333,6.9163408125L6.333333,9.2496778125ZM5.75,12.1663378125L5.75,12.164677812499999L5.164997,12.164677812499999L5.164997,13.3346778125L5.75,13.3346778125L5.75,13.3330078125L16.25,13.3330078125L16.25,13.3346778125L16.835,13.3346778125L16.835,12.164677812499999L16.25,12.164677812499999L16.25,12.1663378125L5.75,12.1663378125ZM5.75,15.0830078125L5.75,15.0813378125L5.164997,15.0813378125L5.164997,16.2513478125L5.75,16.251337812499997L5.75,16.2496778125L16.25,16.2496778125L16.25,16.251337812499997L16.835,16.2513478125L16.835,15.0813378125L16.25,15.0813378125L16.25,15.0830078125L5.75,15.0830078125Z" fill-rule="evenodd" fill="currentColor" fill-opacity="1"/></g></g></g></svg>
