<svg xmlns="http://www.w3.org/2000/svg" xmlns:xlink="http://www.w3.org/1999/xlink" fill="none" version="1.1" width="22" height="22" viewBox="0 0 22 22"><defs><clipPath id="master_svg0_15_26"><rect x="0" y="0" width="22" height="22" rx="0"/></clipPath><mask id="master_svg1_15_29" style="mask-type:alpha" maskUnits="objectBoundingBox"><g><g><rect x="4" y="4" width="14" height="14" rx="0" fill="#000000" fill-opacity="1" style="mix-blend-mode:passthrough"/></g></g></mask></defs><g clip-path="url(#master_svg0_15_26)"><g><g mask="url(#master_svg1_15_29)"><g><g><g><path d="M4.583485602861573,15.66603263671875L4.583485602861573,11.597272636718749L4.583323001861572,11.58335263671875L4.583323001861572,9.25002263671875L4.583485602861573,9.23610263671875L4.583485602861573,6.91603563671875C4.583485602861573,6.59386963671875,4.844653001861572,6.33270263671875,5.1668190018615725,6.33270263671875L16.833523001861572,6.33270263671875C17.155723001861574,6.33270263671875,17.416823001861573,6.59386963671875,17.416823001861573,6.91603563671875L17.416823001861573,15.66603263671875C17.416823001861573,15.98820263671875,17.155723001861574,16.24937263671875,16.833523001861572,16.24937263671875L5.1668190018615725,16.24937263671875C4.844653001861572,16.24937263671875,4.583485602861573,15.98820263671875,4.583485602861573,15.66603263671875ZM16.24982300186157,9.25002263671875L16.24982300186157,9.83270263671875L5.750153001861572,9.83270263671875L5.750153001861572,7.49937263671875L16.25022300186157,7.49937263671875L16.25022300186157,9.23035263671875C16.249923001861575,9.23688263671875,16.24982300186157,9.24344263671875,16.24982300186157,9.25002263671875ZM6.916813001861572,9.24937263671875Q6.974273001861572,9.24937263671875,7.0306230018615725,9.23816263671875Q7.086963001861572,9.22695263671875,7.140053001861572,9.20496263671875Q7.193133001861572,9.18298263671875,7.240903001861572,9.15106263671875Q7.288673001861572,9.119142636718749,7.329293001861572,9.07851263671875Q7.369923001861572,9.03789263671875,7.401843001861572,8.99012263671875Q7.433763001861572,8.94235263671875,7.455743001861572,8.88927263671875Q7.477733001861573,8.83618263671875,7.488943001861572,8.779842636718751Q7.500153001861572,8.723492636718749,7.500153001861572,8.66603263671875Q7.500153001861572,8.60858263671875,7.488943001861572,8.552232636718749Q7.477733001861573,8.49588263671875,7.455743001861572,8.44280263671875Q7.433763001861572,8.38972263671875,7.401843001861572,8.34195263671875Q7.369923001861572,8.29418263671875,7.329293001861572,8.25355263671875Q7.288673001861572,8.212932636718751,7.240903001861572,8.18101263671875Q7.193133001861572,8.14909263671875,7.140053001861572,8.12710263671875Q7.086963001861572,8.10512263671875,7.0306230018615725,8.09391263671875Q6.974273001861572,8.08270263671875,6.916813001861572,8.08270263671875Q6.859363001861572,8.08270263671875,6.803013001861572,8.09391263671875Q6.746663001861572,8.10512263671875,6.6935830018615725,8.12710263671875Q6.640503001861572,8.14909263671875,6.592733001861572,8.18101263671875Q6.544963001861572,8.212932636718751,6.504333001861572,8.25355263671875Q6.4637130018615725,8.29418263671875,6.431793001861572,8.34195263671875Q6.399873001861573,8.38972263671875,6.377883001861572,8.44280263671875Q6.355903001861572,8.49588263671875,6.344693001861573,8.552232636718749Q6.333483001861572,8.60858263671875,6.333483001861572,8.66603263671875Q6.333483001861572,8.723492636718749,6.344693001861573,8.779842636718751Q6.355903001861572,8.83618263671875,6.377883001861572,8.88927263671875Q6.399873001861573,8.94235263671875,6.431793001861572,8.99012263671875Q6.4637130018615725,9.03789263671875,6.504333001861572,9.07851263671875Q6.544963001861572,9.119142636718749,6.592733001861572,9.15106263671875Q6.640503001861572,9.18298263671875,6.6935830018615725,9.20496263671875Q6.746663001861572,9.22695263671875,6.803013001861572,9.23816263671875Q6.859363001861572,9.24937263671875,6.916813001861572,9.24937263671875ZM8.666813001861573,9.24937263671875Q8.724273001861572,9.24937263671875,8.780623001861573,9.23816263671875Q8.836973001861573,9.22695263671875,8.890043001861573,9.20496263671875Q8.943123001861572,9.18298263671875,8.990903001861572,9.15106263671875Q9.038673001861572,9.119142636718749,9.079293001861572,9.07851263671875Q9.119923001861572,9.03789263671875,9.151843001861572,8.99012263671875Q9.183763001861571,8.94235263671875,9.205743001861572,8.88927263671875Q9.227733001861573,8.83618263671875,9.238943001861571,8.779842636718751Q9.250153001861573,8.723492636718749,9.250153001861573,8.66603263671875Q9.250153001861573,8.60858263671875,9.238943001861571,8.552232636718749Q9.227733001861573,8.49588263671875,9.205743001861572,8.44280263671875Q9.183763001861571,8.38972263671875,9.151843001861572,8.34195263671875Q9.119923001861572,8.29418263671875,9.079293001861572,8.25355263671875Q9.038673001861572,8.212932636718751,8.990903001861572,8.18101263671875Q8.943123001861572,8.14909263671875,8.890053001861572,8.12710263671875Q8.836973001861573,8.10512263671875,8.780623001861573,8.09391263671875Q8.724273001861572,8.08270263671875,8.666813001861573,8.08270263671875Q8.609363001861572,8.08270263671875,8.553013001861572,8.09391263671875Q8.496663001861572,8.10512263671875,8.443583001861573,8.12710263671875Q8.390503001861571,8.14909263671875,8.342733001861571,8.18101263671875Q8.294963001861571,8.212932636718751,8.254333001861571,8.25355263671875Q8.213713001861572,8.29418263671875,8.181793001861571,8.34195263671875Q8.149873001861572,8.38972263671875,8.127883001861573,8.44280263671875Q8.105903001861572,8.49588263671875,8.094693001861572,8.552232636718749Q8.083483001861573,8.60858263671875,8.083483001861573,8.66603263671875Q8.083483001861573,8.723492636718749,8.094693001861572,8.779842636718751Q8.105903001861572,8.83618263671875,8.127883001861573,8.88927263671875Q8.149873001861572,8.94235263671875,8.181793001861571,8.99012263671875Q8.213713001861572,9.03789263671875,8.254333001861571,9.07851263671875Q8.294963001861571,9.119142636718749,8.342733001861571,9.15106263671875Q8.390503001861571,9.18298263671875,8.443583001861573,9.20496263671875Q8.496663001861572,9.22695263671875,8.553013001861572,9.23816263671875Q8.609363001861572,9.24937263671875,8.666813001861573,9.24937263671875ZM5.750153001861572,15.08270263671875L5.750153001861572,10.99937263671875L16.24982300186157,10.99937263671875L16.24982300186157,11.58335263671875C16.24982300186157,11.58993263671875,16.249923001861575,11.59649263671875,16.25022300186157,11.60302263671875L16.25022300186157,15.08270263671875L5.750153001861572,15.08270263671875ZM15.083523001861572,13.91636263671875L11.583483001861573,13.91636263671875L11.583483001861573,12.74969263671875L15.083523001861572,12.74969263671875L15.083523001861572,13.91636263671875Z" fill-rule="evenodd" fill="#A061F2" fill-opacity="1" style="mix-blend-mode:passthrough"/></g></g></g></g></g></g></svg>