<svg xmlns="http://www.w3.org/2000/svg" xmlns:xlink="http://www.w3.org/1999/xlink" fill="none" version="1.1" width="22" height="22" viewBox="0 0 22 22"><defs><clipPath id="master_svg0_4060_084964"><rect x="4" y="4" width="14" height="14" rx="0"/></clipPath></defs><g><g clip-path="url(#master_svg0_4060_084964)"><g><path d="M4.583265367239838,15.623178626861572L4.583265367239838,6.333322626861572Q4.583265367239838,6.275869626861573,4.5944739372398375,6.219520626861573Q4.605682537239837,6.1631706268615725,4.627668937239838,6.110090626861572Q4.649655437239837,6.057010626861572,4.681575237239838,6.009240626861573Q4.713494237239837,5.961469626861573,4.754120237239838,5.920843626861572Q4.794745237239837,5.880218626861573,4.842516237239837,5.848299026861572Q4.890287237239837,5.816379626861572,4.943366237239838,5.7943932268615725Q4.996446237239837,5.772406826861572,5.052796237239837,5.7611982268615725Q5.109145237239837,5.749989628861572,5.166599237239837,5.749989628861572L16.83326123723984,5.749989628861572Q16.890761237239836,5.749989628861572,16.947061237239836,5.7611982268615725Q17.00346123723984,5.772406826861572,17.056461237239837,5.7943932268615725Q17.109561237239838,5.816379626861572,17.15736123723984,5.848299026861572Q17.205161237239835,5.880218626861573,17.24576123723984,5.920843626861572Q17.286361237239838,5.961469626861573,17.318261237239838,6.009240626861573Q17.35016123723984,6.057010626861572,17.372161237239837,6.110090626861572Q17.394161237239835,6.1631706268615725,17.405361237239838,6.219520626861573Q17.41656123723984,6.275869626861573,17.41656123723984,6.333322626861572L17.41656123723984,15.623188626861571Q17.41826123723984,15.645218626861572,17.41826123723984,15.667308626861573Q17.41826123723984,15.724928626861573,17.407061237239837,15.781438626861572Q17.39576123723984,15.837938626861572,17.37376123723984,15.891138626861572Q17.35166123723984,15.944438626861572,17.31966123723984,15.992338626861573Q17.28766123723984,16.040238626861573,17.246961237239837,16.080938626861574Q17.20616123723984,16.12173862686157,17.158261237239838,16.153738626861575Q17.110361237239836,16.18573862686157,17.05716123723984,16.20773862686157Q17.00386123723984,16.22983862686157,16.94736123723984,16.241038626861574Q16.89086123723984,16.252338626861572,16.83326123723984,16.252338626861572Q16.811161237239837,16.252338626861572,16.78916123723984,16.250638626861573L5.210725237239838,16.250638626861573Q5.188693237239837,16.252338626861572,5.166599237239837,16.252338626861572Q5.1089812372398375,16.252338626861572,5.052471237239837,16.241038626861574Q4.995960237239838,16.22983862686157,4.9427292372398375,16.20773862686157Q4.889497237239838,16.18573862686157,4.841590237239838,16.153738626861575Q4.793683237239837,16.12173862686157,4.752941237239837,16.080938626861574Q4.712199237239838,16.040238626861573,4.680189037239837,15.992338626861573Q4.648178437239838,15.944438626861572,4.626129237239837,15.891138626861572Q4.604079937239837,15.837938626861572,4.5928393372398375,15.781438626861572Q4.581598758239838,15.724928626861573,4.581598758239838,15.667308626861573Q4.581598758239838,15.645208626861573,4.583265367239838,15.623178626861572ZM7.214101237239838,15.083318626861573L14.940261237239838,15.083318626861573L12.571691237239838,12.451538626861574L10.905611237239839,14.273818626861573Q10.900691237239837,14.279188626861572,10.895651237239838,14.284438626861572Q10.855831237239837,14.325858626861573,10.808701237239838,14.358718626861572Q10.761571237239838,14.391578626861572,10.708931237239838,14.414608626861572Q10.656301237239838,14.437638626861572,10.600181237239838,14.449958626861573Q10.544071237239837,14.462278626861572,10.486621237239838,14.463418626861571Q10.429181237239838,14.464548626861573,10.372621237239837,14.454458626861573Q10.316061237239838,14.444368626861571,10.262561237239836,14.423438626861572Q10.209051237239837,14.402498626861572,10.160661237239838,14.371528626861572Q10.112271237239838,14.340568626861572,10.070851237239838,14.300748626861573L9.062941237239837,13.331928626861572L7.214101237239838,15.083318626861573ZM16.249961237239837,14.794478626861572L13.008681237239838,11.193098626861573Q12.989681237239838,11.171978626861574,12.968711237239837,11.152808626861573Q12.883071237239838,11.074508626861572,12.774001237239837,11.034948626861572Q12.664921237239838,10.995378626861573,12.549001237239839,11.000578626861572Q12.433091237239838,11.005758626861573,12.327981237239838,11.054918626861571Q12.222871237239838,11.104068626861572,12.144581237239837,11.189708626861572L10.448151237239838,13.045178626861572L9.470131237239837,12.105078626861573Q9.429951237239838,12.066458626861571,9.383181237239839,12.036148626861571Q9.336421237239838,12.005828626861572,9.284761237239838,11.984918626861571Q9.233101237239838,11.964008626861572,9.178421237239839,11.953258626861572Q9.123741237239837,11.942508626861573,9.068011237239837,11.942298626861572Q9.012281237239836,11.942098626861572,8.957521237239838,11.952448626861571Q8.902761237239837,11.962798626861574,8.850951237239837,11.983338626861572Q8.799141237239837,12.003868626861571,8.752161237239838,12.033848626861573Q8.705171237239838,12.063818626861572,8.664711237239839,12.102138626861572L5.749931237239838,14.863298626861573L5.749931237239838,6.916658626861572L16.249961237239837,6.916658626861572L16.249961237239837,14.794478626861572ZM9.833431237239838,9.249988626861573Q9.833431237239838,9.307308626861573,9.827811237239839,9.364338626861572Q9.822191237239839,9.421378626861571,9.811011237239837,9.477598626861573Q9.799831237239838,9.533808626861571,9.783191237239837,9.588658626861573Q9.766551237239838,9.643498626861572,9.744621237239837,9.696448626861573Q9.722691237239838,9.749408626861573,9.695671237239837,9.799948626861571Q9.668651237239837,9.850498626861572,9.636811237239836,9.898158626861573Q9.604971237239837,9.945808626861572,9.568611237239837,9.990118626861573Q9.532251237239837,10.034418626861573,9.491721237239837,10.074948626861573Q9.451191237239836,10.115478626861572,9.406891237239837,10.151838626861572Q9.362581237239837,10.188198626861572,9.314931237239838,10.220038626861573Q9.267271237239838,10.251878626861572,9.216721237239838,10.278898626861572Q9.166181237239837,10.305918626861573,9.113221237239838,10.327848626861572Q9.060271237239839,10.349778626861571,9.005431237239836,10.366418626861572Q8.950581237239838,10.383058626861573,8.894371237239838,10.394238626861572Q8.838151237239838,10.405418626861572,8.781111237239838,10.411038626861572Q8.724071237239837,10.416658626861572,8.666761237239838,10.416658626861572Q8.609451237239838,10.416658626861572,8.552411237239838,10.411038626861572Q8.495371237239837,10.405418626861572,8.439151237239837,10.394238626861572Q8.382941237239837,10.383058626861573,8.328091237239837,10.366418626861572Q8.273251237239837,10.349778626861571,8.220301237239838,10.327848626861572Q8.167341237239837,10.305918626861573,8.116801237239837,10.278898626861572Q8.066251237239838,10.251878626861572,8.018591237239837,10.220038626861573Q7.970941237239838,10.188198626861572,7.926631237239837,10.151838626861572Q7.882331237239837,10.115478626861572,7.841801237239838,10.074948626861573Q7.801271237239838,10.034418626861573,7.764921237239838,9.990118626861573Q7.728551237239838,9.945808626861572,7.696711237239837,9.898158626861573Q7.664871237239838,9.850498626861572,7.637851237239838,9.799948626861571Q7.610831237239838,9.749408626861573,7.5889012372398374,9.696448626861573Q7.566971237239837,9.643498626861572,7.5503312372398375,9.588658626861573Q7.533691237239838,9.533808626861571,7.522511237239838,9.477598626861573Q7.511331237239838,9.421378626861571,7.505711237239838,9.364338626861572Q7.500091237239838,9.307308626861573,7.500091237239838,9.249988626861573Q7.500091237239838,9.192678626861571,7.505711237239838,9.135638626861573Q7.511331237239838,9.078598626861572,7.522511237239838,9.022388626861572Q7.533691237239838,8.966168626861572,7.5503312372398375,8.911328626861572Q7.566971237239837,8.856478626861572,7.5889012372398374,8.803528626861572Q7.610831237239838,8.750568626861572,7.637851237239838,8.700028626861572Q7.664871237239838,8.649478626861573,7.696711237239837,8.601828626861572Q7.728551237239838,8.554168626861571,7.764921237239838,8.509868626861572Q7.801271237239838,8.465558626861572,7.841801237239838,8.425028626861572Q7.882331237239837,8.384508626861573,7.926631237239837,8.348148626861573Q7.970941237239838,8.311788626861572,8.018591237239837,8.279938626861572Q8.066251237239838,8.248098626861573,8.116801237239837,8.221078626861573Q8.167341237239837,8.194058626861572,8.220301237239838,8.172128626861571Q8.273251237239837,8.150198626861572,8.328091237239837,8.133558626861571Q8.382941237239837,8.116918626861573,8.439151237239837,8.105738626861573Q8.495371237239837,8.094558626861572,8.552411237239838,8.088938626861573Q8.609451237239838,8.083318626861573,8.666761237239838,8.083318626861573Q8.724071237239837,8.083318626861573,8.781111237239838,8.088938626861573Q8.838151237239838,8.094558626861572,8.894371237239838,8.105738626861573Q8.950581237239838,8.116918626861573,9.005431237239836,8.133558626861571Q9.060271237239839,8.150198626861572,9.113221237239838,8.172128626861571Q9.166181237239837,8.194058626861572,9.216721237239838,8.221078626861573Q9.267271237239838,8.248098626861573,9.314931237239838,8.279938626861572Q9.362581237239837,8.311788626861572,9.406891237239837,8.348148626861573Q9.451191237239836,8.384508626861573,9.491721237239837,8.425028626861572Q9.532251237239837,8.465558626861572,9.568611237239837,8.509868626861572Q9.604971237239837,8.554168626861571,9.636811237239836,8.601828626861572Q9.668651237239837,8.649478626861573,9.695671237239837,8.700028626861572Q9.722691237239838,8.750578626861572,9.744621237239837,8.803528626861572Q9.766551237239838,8.856478626861572,9.783191237239837,8.911328626861572Q9.799831237239838,8.966168626861572,9.811011237239837,9.022388626861572Q9.822191237239839,9.078598626861572,9.827811237239839,9.135638626861573Q9.833431237239838,9.192678626861571,9.833431237239838,9.249988626861573Z" fill-rule="evenodd" fill="#65C344" fill-opacity="1"/></g></g></g></svg>