<svg xmlns="http://www.w3.org/2000/svg" xmlns:xlink="http://www.w3.org/1999/xlink" fill="none" version="1.1" width="44" height="44" viewBox="0 0 44 44"><defs><clipPath id="master_svg0_3706_112284"><rect x="0" y="0" width="44" height="44" rx="0"/></clipPath><mask id="master_svg1_3706_112284/688_041887" style="mask-type:alpha" maskUnits="userSpaceOnUse"><g><path d="M7.30702,2.75C12.12538,2.75,25.1433,2.75,28.5229,2.75C29.0394,2.75,29.5428,2.980359,29.8902,3.362562C31.5528,5.1913599999999995,36.4613,10.590810000000001,38.0196,12.30484C38.3263,12.64231,38.5,13.0797,38.5,13.5358C38.5,17.1693,38.5,33.8769,38.5,39.4413C38.5,40.4538,37.6932,41.25,36.6807,41.25C30.9143,41.25,13.08566,41.25,7.31934,41.25C6.3068159999999995,41.25,5.5,40.4469,5.5,39.4344C5.5,32.9593,5.5,11.04068,5.5,4.56557C5.5,3.55305,6.294494,2.75,7.30702,2.75" fill="#FFFFFF" fill-opacity="1"/></g></mask></defs><g clip-path="url(#master_svg0_3706_112284)"><g><path d="M9.15715,2.75C14.43933,2.75,23.9825,2.75,27.7459,2.75C28.779,2.75,29.7158,3.17074,30.4107,3.93515C32.2209,5.9263200000000005,35.8424,9.909980000000001,37.5576,11.79674C38.1712,12.47167,38.5,13.335,38.5,14.2472C38.5,18.4947,38.5,31.239,38.5,37.5816C38.5,39.6066,36.892700000000005,41.25,34.8677,41.25C28.5198,41.25,15.4802,41.25,9.1323,41.25C7.10726,41.25,5.5,39.5891,5.5,37.564C5.5,30.2097,5.5,13.7903,5.5,6.43596C5.5,4.41091,7.13211,2.75,9.15715,2.75" fill="#EE404B" fill-opacity="1"/></g><g mask="url(#master_svg1_3706_112284/688_041887)"><g><path d="M30.23700409375,12.8333C32.11336609375,12.8333,36.47659609375,12.8333,39.11309609375,12.8333C39.91349609375,12.8333,40.348796093749996,11.8627,39.80419609375,11.2761C37.55802609375,8.85718,33.24727609375,4.21484,30.91889609375,1.70735C30.35198609375,1.09684,29.33349609375,1.46833,29.33349609375,2.30145C29.33349609375,5.15973,29.33349609375,9.9025,29.33349609375,11.9005C29.33349609375,12.4067,29.73074309375,12.8333,30.23700409375,12.8333" fill="#FC828A" fill-opacity="1"/></g></g><g><path d="M11.17371,20.075484375000002L11.17371,28.583984375L12.56796,28.583984375L12.56796,25.318814375000002L14.677209999999999,25.318814375000002C16.750709999999998,25.318814375000002,17.78746,24.436984375,17.78746,22.685234375C17.78746,20.945404375,16.750709999999998,20.075484375000002,14.701039999999999,20.075484375000002L11.17371,20.075484375000002ZM12.56796,21.267154375L14.59379,21.267154375C15.20154,21.267154375,15.65437,21.374404375,15.94037,21.600814375C16.22637,21.815314375,16.38129,22.172814375,16.38129,22.685234375C16.38129,23.197654375,16.23829,23.567064375,15.95229,23.793484375C15.66629,24.007984375,15.213460000000001,24.127154375,14.59379,24.127154375L12.56796,24.127154375L12.56796,21.267154375ZM18.97912,20.075484375000002L18.97912,28.583984375L22.089399999999998,28.583984375C23.4717,28.583984375,24.508499999999998,28.202684375,25.2235,27.439984375C25.9027,26.713084375,26.2483,25.676284375,26.2483,24.329734375C26.2483,22.971234375,25.9027,21.934484375,25.2235,21.219484375C24.508499999999998,20.456814375,23.4717,20.075484375000002,22.089399999999998,20.075484375000002L18.97912,20.075484375000002ZM20.3734,21.267154375L21.827199999999998,21.267154375C22.8878,21.267154375,23.662399999999998,21.505484375,24.151,21.994064375C24.6276,22.470734375,24.866,23.257234375,24.866,24.329734375C24.866,25.378404375000002,24.6276,26.152984375000003,24.151,26.653484374999998C23.662399999999998,27.142084375,22.8878,27.392284375,21.827199999999998,27.392284375L20.3734,27.392284375L20.3734,21.267154375ZM27.5591,20.075484375000002L27.5591,28.583984375L28.9534,28.583984375L28.9534,24.818314375L33.112300000000005,24.818314375L33.112300000000005,23.626654375L28.9534,23.626654375L28.9534,21.267154375L33.3625,21.267154375L33.3625,20.075484375000002L27.5591,20.075484375000002Z" fill="#FFFFFF" fill-opacity="1"/></g></g></svg>