<svg xmlns="http://www.w3.org/2000/svg" xmlns:xlink="http://www.w3.org/1999/xlink" fill="none" version="1.1" width="44" height="44" viewBox="0 0 44 44"><defs><clipPath id="master_svg0_3706_112598"><rect x="0" y="0" width="44" height="44" rx="0"/></clipPath><mask id="master_svg1_3706_112598/3706_112638" style="mask-type:alpha" maskUnits="userSpaceOnUse"><g><path d="M6.419109,2.75C10.24876,2.75,24.9059,2.75,28.5229,2.75C29.0394,2.75,29.5428,2.980359,29.8902,3.362562C31.5528,5.1913599999999995,36.4613,10.590810000000001,38.0196,12.30484C38.3263,12.64231,38.5,13.0797,38.5,13.5358C38.5,17.3956,38.5,36.0091,38.5,40.3456C38.5,40.8519,38.0934,41.25,37.5871,41.25C32.8541,41.25,11.145859999999999,41.25,6.412894,41.25C5.906632,41.25,5.5,40.841,5.5,40.3348C5.5,35.0909,5.5,8.90915,5.5,3.665223C5.5,3.158961,5.912848,2.75,6.419109,2.75" fill="#FFFFFF" fill-opacity="1"/></g></mask></defs><g clip-path="url(#master_svg0_3706_112598)"><g><path d="M7.30702,2.75C12.12538,2.75,25.1433,2.75,28.5229,2.75C29.0394,2.75,29.5428,2.980359,29.8902,3.362562C31.5528,5.1913599999999995,36.4613,10.590810000000001,38.0196,12.30484C38.3263,12.64231,38.5,13.0797,38.5,13.5358C38.5,17.1693,38.5,33.8769,38.5,39.4413C38.5,40.4538,37.6932,41.25,36.6807,41.25C30.9143,41.25,13.08566,41.25,7.31934,41.25C6.3068159999999995,41.25,5.5,40.4469,5.5,39.4344C5.5,32.9593,5.5,11.04068,5.5,4.56557C5.5,3.55305,6.294494,2.75,7.30702,2.75" fill="#6E4EFF" fill-opacity="1"/></g><g mask="url(#master_svg1_3706_112598/3706_112638)"><g><path d="M12.9873,21.895834375L14.39453,21.895834375C15.200199999999999,21.895834375,15.705079999999999,22.357744375,15.705079999999999,23.091794375C15.705079999999999,23.840164375,15.22884,24.280594375,14.41243,24.280594375L12.9873,24.280594375L12.9873,21.895834375ZM12.9873,25.526694374999998L14.315750000000001,25.526694374999998L15.758790000000001,28.333984375L17.5957,28.333984375L15.96289,25.272464375C16.85449,24.917964375,17.37012,24.058594375,17.37012,23.070314375C17.37012,21.530594375,16.32454,20.585284375,14.62012,20.585284375L11.36523,20.585284375L11.36523,28.333984375L12.9873,28.333984375L12.9873,25.526694374999998ZM23.9085,28.333984375L25.6631,28.333984375L22.974,20.585284375L21.0654,20.585284375L18.3763,28.333984375L20.002000000000002,28.333984375L20.599899999999998,26.486324375000002L23.3213,26.486324375000002L23.9085,28.333984375ZM21.9212,22.196614375L22.017899999999997,22.196614375L22.9775,25.236654375L20.9473,25.236654375L21.9212,22.196614375ZM28.5706,21.895834375L29.9779,21.895834375C30.7835,21.895834375,31.2884,22.357744375,31.2884,23.091794375C31.2884,23.840164375,30.8122,24.280594375,29.9958,24.280594375L28.5706,24.280594375L28.5706,21.895834375ZM28.5706,25.526694374999998L29.8991,25.526694374999998L31.3421,28.333984375L33.179,28.333984375L31.5462,25.272464375C32.437799999999996,24.917964375,32.9535,24.058594375,32.9535,23.070314375C32.9535,21.530594375,31.9079,20.585284375,30.2035,20.585284375L26.9486,20.585284375L26.9486,28.333984375L28.5706,28.333984375L28.5706,25.526694374999998Z" fill="#FFFFFF" fill-opacity="1"/></g><g><path d="M30.23700409375,12.8333C32.11336609375,12.8333,36.47659609375,12.8333,39.11309609375,12.8333C39.91349609375,12.8333,40.348796093749996,11.8627,39.80419609375,11.2761C37.55802609375,8.85718,33.24727609375,4.21484,30.91889609375,1.70735C30.35198609375,1.09684,29.33349609375,1.46833,29.33349609375,2.30145C29.33349609375,5.15973,29.33349609375,9.9025,29.33349609375,11.9005C29.33349609375,12.4067,29.73074309375,12.8333,30.23700409375,12.8333" fill="#B3A1FF" fill-opacity="1"/></g></g></g></svg>