<svg xmlns="http://www.w3.org/2000/svg" xmlns:xlink="http://www.w3.org/1999/xlink" fill="none" version="1.1" width="21.6700439453125" height="21.670013427734375" viewBox="0 0 21.6700439453125 21.670013427734375"><defs><clipPath id="master_svg0_43_25010"><rect x="5" y="5" width="11.670000076293945" height="11.670000076293945" rx="0"/></clipPath></defs><g><g><g clip-path="url(#master_svg0_43_25010)"><g><path d="M5,6.1112400000000004C5,5.49792,5.49792,5,6.1112400000000004,5L9.44562,5C9.610949999999999,5,9.76719,5.0732617,9.872869999999999,5.199687L11.09433,6.66686L15.5581,6.66686C16.1721,6.66686,16.6694,7.16478,16.6694,7.77876L16.6694,15.0031C16.6694,15.6165,16.1721,16.1144,15.5581,16.1144L6.1112400000000004,16.1144C5.497521,16.1144,5,15.6169,5,15.0031L5,6.1112400000000004ZM9.18564,6.1112400000000004L6.1112400000000004,6.1112400000000004L6.1112400000000004,15.0038L15.5588,15.0038L15.5588,7.77876L10.835,7.77876C10.67012,7.77858,10.513829999999999,7.70519,10.4084,7.5784199999999995L9.18564,6.1112400000000004Z" fill="#5C6270" fill-opacity="1"/></g><g><path d="M11.5532965234375,9.608331158203125C11.7702765234375,9.391338958203125,12.122086523437499,9.391338958203125,12.3390765234375,9.608331158203125L13.728456523437501,10.997707158203125C13.9454465234375,11.214697158203125,13.9454465234375,11.566507158203125,13.728456523437501,11.783487158203124L12.3390765234375,13.172867158203125C12.122036523437501,13.389567158203125,11.7704665234375,13.389437158203124,11.5535965234375,13.172567158203126C11.3367265234375,12.955697158203126,11.3365965234375,12.604127158203125,11.5532965234375,12.387087158203125L12.5497865234375,11.390597158203125L11.5532965234375,10.394111158203126C11.3363065234375,10.177126158203125,11.3363065234375,9.825316158203124,11.5532965234375,9.608331158203125ZM10.1165865234375,9.608331158203125C10.3335765234375,9.825316158203124,10.3335765234375,10.177126158203125,10.1165865234375,10.394111158203126L9.1200965234375,11.390597158203125L10.1165865234375,12.387087158203125C10.3335765234375,12.604077158203125,10.3335765234375,12.955877158203124,10.1165865234375,13.172867158203125C9.8995965234375,13.389857158203124,9.5477965234375,13.389857158203124,9.3308065234375,13.172867158203125L7.9414305234375,11.783487158203124C7.7244386234375,11.566507158203125,7.7244386234375,11.214697158203125,7.9414305234375,10.997707158203125L9.3308065234375,9.608331158203125C9.5477965234375,9.391338958203125,9.8996065234375,9.391338958203125,10.1165865234375,9.608331158203125Z" fill="#5C6270" fill-opacity="1"/></g></g></g></g></svg>