<svg xmlns="http://www.w3.org/2000/svg" xmlns:xlink="http://www.w3.org/1999/xlink" fill="none" version="1.1" width="22" height="22" viewBox="0 0 22 22"><defs><clipPath id="master_svg0_3508_123608/5021_084139"><rect x="4" y="4" width="14" height="14" rx="0"/></clipPath></defs><g><g clip-path="url(#master_svg0_3508_123608/5021_084139)"><g><path d="M8.28665229763031,11.28797560760498L5.51492429763031,15.06141560760498L5.13675057863031,15.57605560760498L6.07620329763031,16.26648560760498L9.01028229763031,12.27234560760498L11.94510229763031,16.26844560760498L12.88480229763031,15.57703560760498L9.733922297630311,11.28797560760498L12.88406229763031,6.99988860760498L11.94437229763031,6.3075056076049805L9.01028229763031,10.30262560760498L6.07718029763031,6.30945872760498L5.13748299763031,7.0008646076049805L5.51541229763031,7.51551560760498L8.28665229763031,11.28797560760498Z" fill-rule="evenodd" fill="currentColor" fill-opacity="1"/></g><g><path d="M13.824314387390137,15.914005312499999Q13.964394387390136,16.0501953125,14.162214387390136,16.0501953125L16.783642387390138,16.0501953125L16.783642387390138,15.1168653125L14.882842387390136,15.1168653125Q15.102552387390137,14.8391853125,15.517392387390137,14.4517053125Q16.10064238739014,13.9069253125,16.334802387390138,13.6033353125Q16.783642387390138,13.0214153125,16.783642387390138,12.4585253125Q16.783642387390138,11.7824433125,16.274772387390136,11.3414733125Q15.823242387390136,10.9501953125,15.233642387390137,10.9501953125Q14.644060387390137,10.9501953125,14.192527387390136,11.3414713125Q13.683642387390137,11.7824453125,13.683642387390137,12.4585253125L13.683642387390137,12.9251953125L14.640785387390137,12.9251953125L14.640785387390137,12.4585253125Q14.640785387390137,12.2016553125,14.828332387390137,12.039135312500001Q15.007902387390137,11.8835283125,15.233642387390137,11.8835283125Q15.459392387390137,11.8835283125,15.638952387390137,12.039135312500001Q15.826502387390137,12.2016553125,15.826502387390137,12.4585253125Q15.826502387390137,12.7095953125,15.569872387390136,13.0423053125Q15.382422387390136,13.2853253125,14.855302387390136,13.777685312500001Q14.313245387390136,14.2839953125,14.099981387390137,14.5546453125Q13.683642387390137,15.0830353125,13.683642387390137,15.5835253125Q13.683642387390137,15.7772453125,13.824314387390137,15.914005312499999ZM15.483262387390138,14.415165312500001Q15.003852387390136,14.8628053125,14.781922387390136,15.1668653125Q14.799832387390136,15.1423353125,14.819422387390137,15.1168653125Q15.042512387390136,14.8268453125,15.483262387390138,14.415165312500001ZM16.295212387390137,13.5727953125Q16.063582387390138,13.8729653125,15.483262387390138,14.415165312500001Q16.063532387390136,13.8731653125,16.295212387390137,13.5727953125ZM16.690302387390137,12.8040053125Q16.595792387390137,13.1831053125,16.295212387390137,13.5727953125Q16.595792387390137,13.1830053125,16.690302387390137,12.8040053125ZM13.777267687390136,12.0895053125Q13.733642387390137,12.2639353125,13.733642387390137,12.4585253125Q13.733656987390138,12.2639253125,13.777267687390136,12.0895053125ZM14.795592387390137,12.0013553125Q14.652404387390137,12.1253253125,14.609324387390137,12.2994753125Q14.652403387390137,12.125425312499999,14.795592387390137,12.0013553125ZM15.233642387390137,11.8335283125Q14.989302387390136,11.8333333125,14.795592387390137,12.0013553125Q14.989262387390136,11.8335283125,15.233642387390137,11.8335283125ZM15.671702387390138,12.0013453125Q15.478082387390137,11.8333333125,15.233642387390137,11.8335283125Q15.478042387390136,11.8335283125,15.671702387390138,12.0013453125ZM15.876502387390136,12.4585253125Q15.876552387390136,12.1786253125,15.671702387390138,12.0013453125Q15.876502387390136,12.1788253125,15.876502387390136,12.4585253125ZM15.857112387390137,12.6086853125Q15.876502387390136,12.5307753125,15.876502387390136,12.4585253125Q15.876512387390136,12.5307553125,15.857112387390137,12.6086853125ZM13.770347987390137,15.289975312500001Q13.733642387390137,15.4381853125,13.733642387390137,15.5835253125C13.733642387390137,15.8136453125,13.925520387390137,16.0001953125,14.162213387390137,16.0001953125C13.925569387390137,15.999995312500001,13.733691287390137,15.8134553125,13.733642387390137,15.5835253125Q13.733657087390137,15.4381653125,13.770347987390137,15.289975312500001Z" fill-rule="evenodd" fill="currentColor" fill-opacity="1"/></g></g></g></svg>
