<svg xmlns="http://www.w3.org/2000/svg" xmlns:xlink="http://www.w3.org/1999/xlink" fill="none" version="1.1" width="22" height="22" viewBox="0 0 22 22"><defs><clipPath id="master_svg0_3508_123608/5021_084148"><rect x="4" y="4" width="14" height="14" rx="0"/></clipPath></defs><g><g clip-path="url(#master_svg0_3508_123608/5021_084148)"><g><path d="M8.286830634727478,11.28821974822998L5.515102634727478,15.06165974822998L5.136928915727478,15.57629974822998L6.076381634727478,16.26672974822998L9.010460634727478,12.27258974822998L11.945280634727478,16.26868974822998L12.884980634727478,15.57727974822998L9.73410063472748,11.28821974822998L12.884240634727478,7.00013274822998L11.944550634727477,6.3077497482299805L9.010460634727478,10.30286974822998L6.077358634727478,6.30970286822998L5.137661334727478,7.0011087482299805L5.515590634727478,7.51575974822998L8.286830634727478,11.28821974822998Z" fill-rule="evenodd" fill="currentColor" fill-opacity="1"/></g><g><path d="M14.357029231140137,10.914005312499999Q14.497109231140136,11.0501953125,14.694929231140136,11.0501953125L17.316357231140138,11.0501953125L17.316357231140138,10.1168653125L15.415557231140136,10.1168653125Q15.635267231140137,9.8391853125,16.050107231140135,9.4517053125Q16.63335723114014,8.9069253125,16.867517231140138,8.6033353125Q17.316357231140138,8.0214153125,17.316357231140138,7.4585253125Q17.316357231140138,6.7824433125,16.807487231140136,6.3414733125Q16.355957231140138,5.9501953125,15.766357231140137,5.9501953125Q15.176775231140137,5.9501953125,14.725242231140136,6.3414713125Q14.216357231140137,6.7824453125,14.216357231140137,7.4585253125L14.216357231140137,7.9251953125L15.173500231140137,7.9251953125L15.173500231140137,7.4585253125Q15.173500231140137,7.2016553125,15.361047231140137,7.0391353125Q15.540617231140137,6.8835283125,15.766357231140137,6.8835283125Q15.992107231140137,6.8835283125,16.171667231140137,7.0391353125Q16.359217231140136,7.2016553125,16.359217231140136,7.4585253125Q16.359217231140136,7.7095953125,16.102587231140138,8.0423053125Q15.915137231140136,8.2853253125,15.388017231140136,8.777685312500001Q14.845960231140136,9.2839953125,14.632696231140137,9.5546453125Q14.216357231140137,10.0830353125,14.216357231140137,10.5835253125Q14.216357231140137,10.7772453125,14.357029231140137,10.914005312499999ZM16.015977231140138,9.415165312500001Q15.536567231140136,9.8628053125,15.314637231140136,10.1668653125Q15.332547231140136,10.1423353125,15.352137231140137,10.1168653125Q15.575227231140136,9.8268453125,16.015977231140138,9.415165312500001ZM16.827927231140137,8.5727953125Q16.596297231140138,8.8729653125,16.015977231140138,9.415165312500001Q16.596247231140136,8.8731653125,16.827927231140137,8.5727953125ZM17.223017231140137,7.8040053125Q17.128507231140137,8.1831053125,16.827927231140137,8.5727953125Q17.128507231140137,8.1830053125,17.223017231140137,7.8040053125ZM14.309982531140136,7.0895053125Q14.266357231140137,7.2639353125,14.266357231140137,7.4585253125Q14.266371831140138,7.2639253125,14.309982531140136,7.0895053125ZM15.328307231140137,7.0013553125Q15.185119231140137,7.1253253125,15.142039231140137,7.2994753125Q15.185118231140137,7.1254253125,15.328307231140137,7.0013553125ZM15.766357231140137,6.8335283125Q15.522017231140136,6.8333333125,15.328307231140137,7.0013553125Q15.521977231140136,6.8335283125,15.766357231140137,6.8335283125ZM16.204417231140138,7.0013453125Q16.01079723114014,6.8333333125,15.766357231140137,6.8335283125Q16.010757231140136,6.8335283125,16.204417231140138,7.0013453125ZM16.409217231140136,7.4585253125Q16.409267231140138,7.1786253124999995,16.204417231140138,7.0013453125Q16.409217231140136,7.1788253125,16.409217231140136,7.4585253125ZM16.38982723114014,7.6086853125000005Q16.409217231140136,7.5307753125,16.409217231140136,7.4585253125Q16.409227231140136,7.5307553125,16.38982723114014,7.6086853125000005ZM14.303062831140137,10.289975312500001Q14.266357231140137,10.4381853125,14.266357231140137,10.5835253125C14.266357231140137,10.8136453125,14.458235231140137,11.0001953125,14.694928231140137,11.0001953125C14.458284231140137,10.999995312500001,14.266406131140137,10.8134553125,14.266357231140137,10.5835253125Q14.266371931140137,10.4381653125,14.303062831140137,10.289975312500001Z" fill-rule="evenodd" fill="currentColor" fill-opacity="1"/></g></g></g></svg>
