<svg xmlns="http://www.w3.org/2000/svg" xmlns:xlink="http://www.w3.org/1999/xlink" fill="none" version="1.1" width="22" height="22" viewBox="0 0 22 22"><g><g><g transform="matrix(1,-1.6081230200044232e-16,-1.6081230200044232e-16,-1,2.6645352591003757e-15,32.5)"><path d="M4.730625,24.41638L4.730625,26.75Q4.730625,26.807299999999998,4.741806,26.863500000000002Q4.752986,26.9197,4.7749179999999996,26.9727Q4.796849,27.0256,4.828689,27.0733Q4.860528,27.1209,4.901052,27.1614Q4.941576,27.201999999999998,4.989228,27.233800000000002Q5.036879,27.2656,5.089826,27.287599999999998Q5.142773,27.3095,5.198982,27.320700000000002Q5.2551903,27.331899999999997,5.3125,27.331899999999997L16.6875,27.331899999999997Q16.744799999999998,27.331899999999997,16.801000000000002,27.320700000000002Q16.8572,27.3095,16.9102,27.287599999999998Q16.9631,27.265700000000002,17.0108,27.233800000000002Q17.0584,27.201999999999998,17.0989,27.1614Q17.139499999999998,27.1209,17.171300000000002,27.0733Q17.203200000000002,27.0256,17.225099999999998,26.9727Q17.247,26.9197,17.258200000000002,26.863500000000002Q17.269399999999997,26.807299999999998,17.269399999999997,26.75L17.269399999999997,16.25Q17.269399999999997,16.1926903,17.258200000000002,16.136482Q17.247,16.080273,17.225099999999998,16.027326Q17.203200000000002,15.974379,17.171300000000002,15.926728Q17.139499999999998,15.879076,17.0989,15.838552Q17.0584,15.798028,17.0108,15.766189Q16.9631,15.734349,16.9102,15.712418Q16.8572,15.690486,16.801000000000002,15.679306Q16.744799999999998,15.668125,16.6875,15.668125L5.3125,15.668125Q5.2551903,15.668125,5.198982,15.679306Q5.142773,15.690486,5.089826,15.712418Q5.036879,15.734349,4.989228,15.766189Q4.941576,15.798028,4.901052,15.838552Q4.860528,15.879076,4.828689,15.926728Q4.796849,15.974379,4.7749179999999996,16.027326Q4.752986,16.080273,4.741806,16.136482Q4.730625,16.1926903,4.730625,16.25L4.730625,24.41638ZM5.894375,26.168129999999998L16.105600000000003,26.168129999999998L16.105600000000003,24.998260000000002L5.894375,24.998260000000002L5.894375,26.168129999999998ZM5.894375,23.83451L8.52243,23.83451L8.52243,20.91549L5.894375,20.91549L5.894375,23.83451ZM5.894375,19.751739999999998L8.52243,19.751739999999998L8.52243,16.831875L5.894375,16.831875L5.894375,19.751739999999998ZM9.68618,16.831875L9.68618,19.751739999999998L12.31382,19.751739999999998L12.31382,16.831875L9.68618,16.831875ZM13.47757,16.831875L13.47757,19.751739999999998L16.105600000000003,19.751739999999998L16.105600000000003,16.831875L13.47757,16.831875ZM16.105600000000003,20.91549L13.47757,20.91549L13.47757,23.83451L16.105600000000003,23.83451L16.105600000000003,20.91549ZM12.31382,23.83451L12.31382,20.91549L9.68618,20.91549L9.68618,23.83451L12.31382,23.83451Z" fill-rule="evenodd" fill="#25CBC5" fill-opacity="1"/></g></g></g></svg>