<svg xmlns="http://www.w3.org/2000/svg" xmlns:xlink="http://www.w3.org/1999/xlink" fill="none" version="1.1" width="14" height="14" viewBox="0 0 14 14"><defs><clipPath id="master_svg0_1_6"><rect x="0" y="0" width="14" height="14" rx="0"/></clipPath></defs><g clip-path="url(#master_svg0_1_6)"><g><g><g><g><rect x="1.7110545635223389" y="1.85589599609375" width="10.527345657348633" height="2.0576529502868652" rx="0" fill="#5C6270" fill-opacity="1"/></g></g><g transform="matrix(1,-1.6081230200044232e-16,-1.6081230200044232e-16,-1,2.1094237467877974e-15,26)"><g><path d="M1,22.000439999999998L1,24.4013Q1,24.4603,1.0107005,24.5181Q1.0214,24.5759,1.0423897,24.6304Q1.0633781,24.6849,1.0938503,24.7339Q1.124321,24.782899999999998,1.163104,24.8246Q1.201887,24.8664,1.247491,24.8991Q1.293095,24.931800000000003,1.343767,24.9544Q1.394439,24.977,1.448232,24.988500000000002Q1.5020250000000002,25,1.556873,25L12.4431,25Q12.4979,25,12.5517,24.988500000000002Q12.6055,24.977,12.6562,24.9544Q12.7069,24.931800000000003,12.7525,24.8991Q12.7981,24.8664,12.8368,24.8246Q12.8757,24.782899999999998,12.9061,24.7339Q12.9366,24.6849,12.9576,24.6304Q12.9786,24.5759,12.9893,24.5181Q13,24.4603,13,24.4013L13,13.598648Q13,13.539686,12.9893,13.481858Q12.9786,13.424028,12.9576,13.369556Q12.9366,13.315082,12.9061,13.266058Q12.8757,13.217032,12.8368,13.17534Q12.7981,13.133647,12.7525,13.10089Q12.7069,13.0681331,12.6562,13.0455692Q12.6055,13.0230054,12.5517,13.0115032Q12.4979,13,12.4431,13L1.556873,13Q1.5020250000000002,13,1.448232,13.0115032Q1.394439,13.0230054,1.343767,13.0455692Q1.293095,13.0681331,1.247491,13.10089Q1.201887,13.133647,1.163104,13.17534Q1.124321,13.217032,1.0938503,13.266058Q1.0633781,13.315082,1.0423897,13.369556Q1.0214,13.424028,1.0107005,13.481858Q1,13.539686,1,13.598648L1,22.000439999999998ZM2.11375,23.8027L11.8862,23.8027L11.8862,22.59909L2.11375,22.59909L2.11375,23.8027ZM2.11375,21.40179L4.6288800000000005,21.40179L4.6288800000000005,18.39863L2.11375,18.39863L2.11375,21.40179ZM2.11375,17.20133L4.6288800000000005,17.20133L4.6288800000000005,14.1973L2.11375,14.1973L2.11375,17.20133ZM5.74262,14.1973L5.74262,17.20133L8.25736,17.20133L8.25736,14.1973L5.74262,14.1973ZM9.3711,14.1973L9.3711,17.20133L11.8862,17.20133L11.8862,14.1973L9.3711,14.1973ZM11.8862,18.39863L9.3711,18.39863L9.3711,21.40179L11.8862,21.40179L11.8862,18.39863ZM8.25736,21.40179L8.25736,18.39863L5.74262,18.39863L5.74262,21.40179L8.25736,21.40179Z" fill-rule="evenodd" fill="#5C6270" fill-opacity="1"/></g></g></g></g></g></svg>