<svg xmlns="http://www.w3.org/2000/svg" xmlns:xlink="http://www.w3.org/1999/xlink" fill="none" version="1.1" width="22" height="22" viewBox="0 0 22 22"><g><g><rect x="4" y="4" width="14" height="14.000001907348633" rx="0" fill="#FFFFFF" fill-opacity="1"/><g transform="matrix(1,-1.6081297697982216e-16,1.6081162702106247e-16,1,-8.881784197001252e-16,8.881784197001252e-16)"><path d="M10.5625,16.8333L16.6875,16.8333Q16.744999999999997,16.8333,16.801299999999998,16.8221Q16.8577,16.8109,16.9107,16.788899999999998Q16.9638,16.7669,17.0116,16.735Q17.0594,16.7031,17.1,16.6625Q17.1406,16.6219,17.1725,16.5741Q17.2044,16.5263,17.226399999999998,16.4732Q17.2484,16.4202,17.2596,16.363799999999998Q17.2708,16.307499999999997,17.2708,16.25L17.2708,5.75Q17.2708,5.6925467,17.2596,5.636197Q17.2484,5.579848,17.226399999999998,5.526768Q17.2044,5.473688,17.1725,5.425917Q17.1406,5.378147,17.1,5.337521Q17.0594,5.296895,17.0116,5.264976Q16.9638,5.233057,16.9107,5.21107Q16.8577,5.189084,16.801299999999998,5.177875Q16.744999999999997,5.166667,16.6875,5.166667L5.3125,5.166667Q5.2550467,5.166667,5.198697,5.177875Q5.142348,5.189084,5.089268,5.21107Q5.036188,5.233057,4.988417,5.264976Q4.940647,5.296895,4.900021,5.337521Q4.859395,5.378147,4.827476,5.425917Q4.795557,5.473688,4.77357,5.526768Q4.751584,5.579848,4.740375,5.636197Q4.729167,5.6925467,4.729167,5.75L4.729167,16.25Q4.729167,16.307499999999997,4.740375,16.363799999999998Q4.751584,16.4202,4.77357,16.4732Q4.795557,16.5263,4.827476,16.5741Q4.859395,16.6219,4.900021,16.6625Q4.940647,16.7031,4.988417,16.735Q5.036188,16.7669,5.089268,16.788899999999998Q5.142348,16.8109,5.198697,16.8221Q5.2550467,16.8333,5.3125,16.8333L10.5625,16.8333ZM13.77098,15.66667L8.22902,15.66667L8.22902,11.58333L13.77098,11.58333L13.77098,15.66667ZM14.93764,15.66667L16.1042,15.66667L16.1042,14.50014L14.93764,14.50014L14.93764,15.66667ZM14.93764,13.33348L16.1042,13.33348L16.1042,11.58333L14.93764,11.58333L14.93764,13.33348ZM13.77098,10.41667L8.22902,10.41667L8.22902,6.333333L13.77098,6.333333L13.77098,10.41667ZM7.06236,6.333333L5.895833,6.333333L5.895833,7.49986L7.06236,7.49986L7.06236,6.333333ZM7.06236,8.66652L5.895833,8.66652L5.895833,10.41667L7.06236,10.41667L7.06236,8.66652ZM7.06236,11.58333L5.895833,11.58333L5.895833,13.33348L7.06236,13.33348L7.06236,11.58333ZM7.06236,14.50014L5.895833,14.50014L5.895833,15.66667L7.06236,15.66667L7.06236,14.50014ZM14.93764,10.41667L16.1042,10.41667L16.1042,8.66652L14.93764,8.66652L14.93764,10.41667ZM14.93764,7.49986L16.1042,7.49986L16.1042,6.333333L14.93764,6.333333L14.93764,7.49986Z" fill-rule="evenodd" fill="#E2574D" fill-opacity="1"/></g></g></g></svg>