<svg xmlns="http://www.w3.org/2000/svg" xmlns:xlink="http://www.w3.org/1999/xlink" fill="none" version="1.1" width="44" height="44" viewBox="0 0 44 44"><defs><clipPath id="master_svg0_3706_112518"><rect x="0" y="0" width="44" height="44" rx="0"/></clipPath><mask id="master_svg1_3706_112518/3706_112546" style="mask-type:alpha" maskUnits="userSpaceOnUse"><g><path d="M6.419109,2.75C10.24876,2.75,24.9059,2.75,28.5229,2.75C29.0394,2.75,29.5428,2.980359,29.8902,3.362562C31.5528,5.1913599999999995,36.4613,10.590810000000001,38.0196,12.30484C38.3263,12.64231,38.5,13.0797,38.5,13.5358C38.5,17.3956,38.5,36.0091,38.5,40.3456C38.5,40.8519,38.0934,41.25,37.5871,41.25C32.8541,41.25,11.145859999999999,41.25,6.412894,41.25C5.906632,41.25,5.5,40.841,5.5,40.3348C5.5,35.0909,5.5,8.90915,5.5,3.665223C5.5,3.158961,5.912848,2.75,6.419109,2.75" fill="#FFFFFF" fill-opacity="1"/></g></mask></defs><g clip-path="url(#master_svg0_3706_112518)"><g><path d="M7.30702,2.75C12.12538,2.75,25.1433,2.75,28.5229,2.75C29.0394,2.75,29.5428,2.980359,29.8902,3.362562C31.5528,5.1913599999999995,36.4613,10.590810000000001,38.0196,12.30484C38.3263,12.64231,38.5,13.0797,38.5,13.5358C38.5,17.1693,38.5,33.8769,38.5,39.4413C38.5,40.4538,37.6932,41.25,36.6807,41.25C30.9143,41.25,13.08566,41.25,7.31934,41.25C6.3068159999999995,41.25,5.5,40.4469,5.5,39.4344C5.5,32.9593,5.5,11.04068,5.5,4.56557C5.5,3.55305,6.294494,2.75,7.30702,2.75" fill="#25B973" fill-opacity="1"/></g><g mask="url(#master_svg1_3706_112518/3706_112546)"><g><path d="M30.23700409375,12.8333C32.11336609375,12.8333,36.47659609375,12.8333,39.11309609375,12.8333C39.91349609375,12.8333,40.348796093749996,11.8627,39.80419609375,11.2761C37.55802609375,8.85718,33.24727609375,4.21484,30.91889609375,1.70735C30.35198609375,1.09684,29.33349609375,1.46833,29.33349609375,2.30145C29.33349609375,5.15973,29.33349609375,9.9025,29.33349609375,11.9005C29.33349609375,12.4067,29.73074309375,12.8333,30.23700409375,12.8333" fill="#51D496" fill-opacity="1"/></g></g><g><path d="M15.58349609375,31.167284375C15.58349609375,31.167284375,18.40301609375,31.167284375,18.40301609375,31.167284375C18.40301609375,31.167284375,21.81453609375,26.560484375,21.81453609375,26.560484375C21.81453609375,26.560484375,21.98511609375,26.560484375,21.98511609375,26.560484375C21.98511609375,26.560484375,25.34646609375,31.167284375,25.34646609375,31.167284375C25.34646609375,31.167284375,28.33659609375,31.167284375,28.33659609375,31.167284375C28.33659609375,31.167284375,23.56043609375,24.755094375,23.56043609375,24.755094375C23.56043609375,24.755094375,28.41679609375,18.333984375,28.41679609375,18.333984375C28.41679609375,18.333984375,25.50700609375,18.333984375,25.50700609375,18.333984375C25.50700609375,18.333984375,22.15568609375,23.047544375,22.15568609375,23.047544375C22.15568609375,23.047544375,21.98511609375,23.047544375,21.98511609375,23.047544375C21.98511609375,23.047544375,18.68396609375,18.333984375,18.68396609375,18.333984375C18.68396609375,18.333984375,15.62363159375,18.333984375,15.62363159375,18.333984375C15.62363159375,18.333984375,20.31948609375,24.701734375,20.31948609375,24.701734375C20.31948609375,24.701734375,15.58349609375,31.167284375,15.58349609375,31.167284375Z" fill="#FFFFFF" fill-opacity="1"/></g></g></svg>