<svg xmlns="http://www.w3.org/2000/svg" xmlns:xlink="http://www.w3.org/1999/xlink" fill="none" version="1.1" width="44" height="44" viewBox="0 0 44 44"><defs><clipPath id="master_svg0_3706_112672"><rect x="0" y="0" width="44" height="44" rx="0"/></clipPath><mask id="master_svg1_3706_112672/3706_112638" style="mask-type:alpha" maskUnits="userSpaceOnUse"><g><path d="M6.419109,2.75C10.24876,2.75,24.9059,2.75,28.5229,2.75C29.0394,2.75,29.5428,2.980359,29.8902,3.362562C31.5528,5.1913599999999995,36.4613,10.590810000000001,38.0196,12.30484C38.3263,12.64231,38.5,13.0797,38.5,13.5358C38.5,17.3956,38.5,36.0091,38.5,40.3456C38.5,40.8519,38.0934,41.25,37.5871,41.25C32.8541,41.25,11.145859999999999,41.25,6.412894,41.25C5.906632,41.25,5.5,40.841,5.5,40.3348C5.5,35.0909,5.5,8.90915,5.5,3.665223C5.5,3.158961,5.912848,2.75,6.419109,2.75" fill="#FFFFFF" fill-opacity="1"/></g></mask></defs><g clip-path="url(#master_svg0_3706_112672)"><g><path d="M7.30702,2.75C12.12538,2.75,25.1433,2.75,28.5229,2.75C29.0394,2.75,29.5428,2.980359,29.8902,3.362562C31.5528,5.1913599999999995,36.4613,10.590810000000001,38.0196,12.30484C38.3263,12.64231,38.5,13.0797,38.5,13.5358C38.5,17.1693,38.5,33.8769,38.5,39.4413C38.5,40.4538,37.6932,41.25,36.6807,41.25C30.9143,41.25,13.08566,41.25,7.31934,41.25C6.3068159999999995,41.25,5.5,40.4469,5.5,39.4344C5.5,32.9593,5.5,11.04068,5.5,4.56557C5.5,3.55305,6.294494,2.75,7.30702,2.75" fill="#6E4EFF" fill-opacity="1"/></g><g mask="url(#master_svg1_3706_112672/3706_112638)"><g><path d="M13.55127,28.333984375L19.53467,28.333984375L19.53467,26.948244375L15.53857,26.948244375L15.53857,26.851564375000002L19.42725,21.673824375L19.42725,20.583494375L13.642579999999999,20.583494375L13.642579999999999,21.969234375L17.45068,21.969234375L17.45068,22.065914375L13.55127,27.238284375L13.55127,28.333984375ZM22.8218,28.333984375L22.8218,20.583494375L21.1997,20.583494375L21.1997,28.333984375L22.8218,28.333984375ZM24.701700000000002,20.583494375L24.701700000000002,28.333984375L26.3237,28.333984375L26.3237,25.927734375L27.8545,25.927734375C29.4873,25.927734375,30.6206,24.858884375,30.6206,23.263674375C30.6206,21.652344375,29.5303,20.583494375,27.9351,20.583494375L24.701700000000002,20.583494375ZM26.3237,21.915524375L27.5054,21.915524375C28.4399,21.915524375,28.9717,22.388184375,28.9717,23.269044375C28.9717,24.139164375,28.4292,24.611814375,27.5,24.611814375L26.3237,24.611814375L26.3237,21.915524375Z" fill="#FFFFFF" fill-opacity="1"/></g><g><path d="M30.23700409375,12.8333C32.11336609375,12.8333,36.47659609375,12.8333,39.11309609375,12.8333C39.91349609375,12.8333,40.348796093749996,11.8627,39.80419609375,11.2761C37.55802609375,8.85718,33.24727609375,4.21484,30.91889609375,1.70735C30.35198609375,1.09684,29.33349609375,1.46833,29.33349609375,2.30145C29.33349609375,5.15973,29.33349609375,9.9025,29.33349609375,11.9005C29.33349609375,12.4067,29.73074309375,12.8333,30.23700409375,12.8333" fill="#B3A1FF" fill-opacity="1"/></g></g></g></svg>